<svg width="161" height="53" viewBox="0 0 161 53" fill="none" xmlns="http://www.w3.org/2000/svg">
<g clip-path="url(#clip0_13846_50)">
<path d="M10.7497 52.4385C10.3373 52.4385 9.93482 52.4332 9.52563 52.424C8.67793 52.413 7.83223 52.3394 6.99543 52.2038C6.21516 52.0698 5.45929 51.8205 4.75275 51.4642C4.0527 51.1108 3.41418 50.6475 2.86168 50.0918C2.30118 49.5429 1.83454 48.9061 1.48024 48.2068C1.12205 47.503 0.874155 46.7485 0.745205 45.9698C0.605948 45.133 0.530598 44.2869 0.519821 43.4387C0.511238 43.1541 0.5 42.2061 0.5 42.2061V11.0231C0.5 11.0231 0.511972 10.0899 0.519887 9.81575C0.530212 8.96891 0.60512 8.12412 0.743962 7.28865C0.873148 6.50777 1.12123 5.75116 1.47962 5.04501C1.83261 4.3462 2.29666 3.70894 2.85379 3.15795C3.41029 2.60172 4.05084 2.13599 4.75209 1.77774C5.45701 1.42257 6.21144 1.17505 6.99014 1.04348C7.82968 0.906558 8.67832 0.832535 9.52892 0.822022L10.7504 0.805542H149.866L151.101 0.82269C151.944 0.832676 152.785 0.906041 153.617 1.04216C154.403 1.17538 155.165 1.42462 155.879 1.78169C157.284 2.50367 158.427 3.64591 159.148 5.04831C159.5 5.74958 159.745 6.50002 159.872 7.27414C160.012 8.11648 160.092 8.9679 160.108 9.82168C160.111 10.2039 160.111 10.6145 160.111 11.0231C160.123 11.5294 160.123 12.0112 160.123 12.4969V40.7481C160.123 41.2386 160.123 41.7171 160.111 42.1995C160.111 42.6385 160.111 43.0406 160.107 43.4545C160.091 44.293 160.013 45.1292 159.875 45.9565C159.749 46.741 159.502 47.5012 159.144 48.2108C158.787 48.9026 158.323 49.5338 157.77 50.0813C157.216 50.6399 156.576 51.106 155.875 51.4615C155.164 51.8206 154.403 52.0709 153.617 52.2038C152.78 52.34 151.934 52.4137 151.086 52.424C150.69 52.4332 150.275 52.4385 149.872 52.4385L148.405 52.4411L10.7497 52.4385Z" fill="black"/>
<path d="M32.8478 27.0274C32.8622 25.9007 33.1624 24.796 33.7201 23.816C34.2779 22.8361 35.0751 22.0127 36.0377 21.4226C35.4262 20.5517 34.6195 19.835 33.6816 19.3294C32.7438 18.8238 31.7006 18.5433 30.635 18.51C28.3618 18.2721 26.1582 19.8664 24.9998 19.8664C23.819 19.8664 22.0356 18.5337 20.1151 18.573C18.8729 18.6131 17.6622 18.9733 16.6012 19.6186C15.54 20.2639 14.6646 21.1724 14.0603 22.2554C11.4423 26.7753 13.395 33.4181 15.9029 37.0717C17.1576 38.8607 18.6239 40.8592 20.5427 40.7884C22.4204 40.7107 23.1216 39.5944 25.3881 39.5944C27.6334 39.5944 28.2914 40.7884 30.2491 40.7433C32.2638 40.7107 33.5333 38.9463 34.7439 37.1403C35.6455 35.8655 36.3391 34.4566 36.7994 32.9658C35.6288 32.472 34.63 31.6457 33.9273 30.5897C33.2245 29.5337 32.8491 28.2948 32.8478 27.0274Z" fill="white"/>
<path d="M29.1498 16.1075C30.2483 14.7925 30.7895 13.1022 30.6585 11.3956C28.9802 11.5714 27.4299 12.3713 26.3165 13.6359C25.7721 14.2537 25.3552 14.9724 25.0896 15.751C24.8239 16.5296 24.7147 17.3527 24.7683 18.1734C25.6078 18.182 26.4383 18.0005 27.1971 17.6427C27.9561 17.2849 28.6238 16.76 29.1498 16.1075Z" fill="white"/>
<path d="M56.582 36.2602H50.1745L48.6358 40.791H45.9218L51.9909 24.0282H54.8106L60.8796 40.791H58.1194L56.582 36.2602ZM50.8381 34.1695H55.9171L53.4133 26.8163H53.3433L50.8381 34.1695Z" fill="white"/>
<path d="M73.9864 34.6811C73.9864 38.4789 71.948 40.919 68.8718 40.919C68.0926 40.9597 67.3176 40.7806 66.6356 40.4025C65.9536 40.0243 65.3922 39.4623 65.0157 38.7808H64.9575V44.8342H62.4418V28.5697H64.8769V30.6025H64.9231C65.317 29.9242 65.8879 29.3651 66.5751 28.9846C67.2623 28.6042 68.04 28.4166 68.8256 28.4418C71.936 28.4418 73.9864 30.8938 73.9864 34.6811ZM71.4007 34.6811C71.4007 32.2068 70.1184 30.5801 68.1619 30.5801C66.2398 30.5801 64.947 32.2411 64.947 34.6811C64.947 37.1436 66.2398 38.7927 68.1619 38.7927C70.1184 38.7927 71.4007 37.1778 71.4007 34.6811Z" fill="white"/>
<path d="M87.4758 34.6811C87.4758 38.4789 85.4374 40.919 82.3613 40.919C81.582 40.9597 80.807 40.7806 80.1251 40.4025C79.4431 40.0243 78.8817 39.4623 78.5052 38.7807H78.4469V44.8341H75.9313V28.5697H78.3663V30.6025H78.4126C78.8064 29.9242 79.3773 29.365 80.0645 28.9846C80.7516 28.6042 81.5294 28.4166 82.315 28.4418C85.4255 28.4418 87.4758 30.8938 87.4758 34.6811ZM84.8901 34.6811C84.8901 32.2067 83.6078 30.58 81.6514 30.58C79.7293 30.58 78.4364 32.241 78.4364 34.6811C78.4364 37.1436 79.7293 38.7927 81.6514 38.7927C83.6079 38.7927 84.8901 37.1778 84.8901 34.6811Z" fill="white"/>
<path d="M96.3908 36.1204C96.5781 37.7827 98.1969 38.8742 100.41 38.8742C102.53 38.8742 104.056 37.7826 104.056 36.2838C104.056 34.9827 103.136 34.2036 100.957 33.6698L98.7786 33.1464C95.6915 32.403 94.2587 30.9634 94.2587 28.6274C94.2587 25.7353 96.7861 23.7487 100.376 23.7487C103.928 23.7487 106.363 25.7353 106.444 28.6274H103.905C103.753 26.9546 102.366 25.9449 100.34 25.9449C98.3136 25.9449 96.9263 26.9665 96.9263 28.4535C96.9263 29.6385 97.812 30.3359 99.9786 30.8698L101.831 31.3232C105.28 32.1366 106.713 33.5182 106.713 35.97C106.713 39.1061 104.208 41.0703 100.223 41.0703C96.4953 41.0703 93.9782 39.1522 93.8154 36.1203L96.3908 36.1204Z" fill="white"/>
<path d="M112.142 25.6775V28.5697H114.473V30.5563H112.142V37.2938C112.142 38.3405 112.609 38.8283 113.633 38.8283C113.91 38.8235 114.187 38.8041 114.461 38.7702V40.7449C114 40.8307 113.532 40.8696 113.064 40.8609C110.583 40.8609 109.614 39.9315 109.614 37.5613V30.5563H107.833V28.5697H109.614V25.6775H112.142Z" fill="white"/>
<path d="M115.822 34.6811C115.822 30.8358 118.093 28.4194 121.635 28.4194C125.188 28.4194 127.449 30.8357 127.449 34.6811C127.449 38.5369 125.2 40.9427 121.635 40.9427C118.071 40.9427 115.822 38.5369 115.822 34.6811ZM124.886 34.6811C124.886 32.0432 123.674 30.4864 121.635 30.4864C119.597 30.4864 118.386 32.0551 118.386 34.6811C118.386 37.3294 119.597 38.8744 121.635 38.8744C123.674 38.8744 124.886 37.3294 124.886 34.6811Z" fill="white"/>
<path d="M129.523 28.5695H131.923V30.6496H131.98C132.143 30 132.524 29.4258 133.062 29.0237C133.598 28.6216 134.258 28.416 134.929 28.4416C135.219 28.4405 135.508 28.472 135.79 28.5351V30.8817C135.425 30.7701 135.043 30.7189 134.66 30.7301C134.295 30.7153 133.931 30.7796 133.593 30.9184C133.254 31.0573 132.95 31.2675 132.701 31.5347C132.452 31.8018 132.264 32.1195 132.15 32.466C132.035 32.8124 131.997 33.1795 132.039 33.5418V40.791H129.523V28.5695Z" fill="white"/>
<path d="M147.389 37.2016C147.051 39.4202 144.884 40.9427 142.112 40.9427C138.547 40.9427 136.334 38.5606 136.334 34.7391C136.334 30.9056 138.558 28.4194 142.007 28.4194C145.397 28.4194 147.53 30.7422 147.53 34.4478V35.3072H138.874V35.4589C138.833 35.9087 138.89 36.3617 139.039 36.7881C139.188 37.2144 139.427 37.6042 139.739 37.9316C140.05 38.2591 140.428 38.5166 140.847 38.687C141.267 38.8576 141.718 38.9372 142.171 38.9205C142.764 38.976 143.361 38.8387 143.871 38.5291C144.381 38.2193 144.778 37.7537 145.001 37.2016H147.389ZM138.885 33.5539H145.013C145.036 33.1496 144.973 32.7449 144.832 32.3652C144.69 31.9856 144.472 31.6394 144.189 31.3481C143.907 31.0568 143.567 30.8269 143.192 30.6727C142.816 30.5185 142.412 30.4434 142.007 30.4522C141.596 30.4497 141.191 30.5282 140.812 30.6831C140.432 30.838 140.088 31.0662 139.798 31.3546C139.508 31.643 139.277 31.9858 139.121 32.3632C138.964 32.7408 138.884 33.1454 138.885 33.5539Z" fill="white"/>
<path d="M49.0498 14.8156H50.1298C50.3157 14.8388 50.5045 14.8232 50.684 14.77C50.8636 14.7167 51.0302 14.6269 51.1733 14.5063C51.3163 14.3857 51.4328 14.2368 51.5153 14.0691C51.5978 13.9014 51.6446 13.7184 51.6527 13.5317C51.6527 12.7889 51.0922 12.309 50.1417 12.309C49.9512 12.2825 49.7573 12.2943 49.5715 12.3437C49.3857 12.3931 49.2117 12.4792 49.0597 12.5967C48.9077 12.7144 48.781 12.8611 48.6869 13.0283C48.5927 13.1957 48.5333 13.38 48.5117 13.5706H47.3259C47.3463 13.2247 47.4379 12.8865 47.5951 12.5774C47.7522 12.2682 47.9715 11.9947 48.2391 11.7737C48.5069 11.5528 48.8174 11.3891 49.1513 11.2929C49.4852 11.1968 49.8354 11.1703 50.18 11.2149C51.7703 11.2149 52.8901 12.1027 52.8901 13.3808C52.8938 13.8089 52.7501 14.2254 52.4831 14.5607C52.216 14.8959 51.8418 15.1297 51.4227 15.223V15.3179C51.9195 15.3399 52.3874 15.5571 52.7239 15.9221C53.0606 16.2871 53.2387 16.7701 53.2192 17.2656C53.1825 17.6218 53.0747 17.9672 52.9024 18.2813C52.7301 18.5955 52.4965 18.8722 52.2156 19.0953C51.9347 19.3183 51.6118 19.4831 51.2661 19.5801C50.9205 19.6772 50.5589 19.7044 50.2025 19.6602C49.8454 19.7088 49.4821 19.6851 49.1344 19.5907C48.7866 19.4962 48.4615 19.3329 48.1784 19.1105C47.8953 18.8881 47.6599 18.6111 47.4865 18.2961C47.313 17.9811 47.2049 17.6345 47.1686 17.2768H48.373C48.4456 18.0473 49.1556 18.5444 50.2025 18.5444C51.2495 18.5444 51.933 17.9861 51.933 17.1991C51.933 16.4009 51.2891 15.9092 50.1642 15.9092H49.0498V14.8156Z" fill="white"/>
<path d="M54.5877 17.7465C54.5877 16.6524 55.4061 16.0216 56.8549 15.932L58.506 15.837V15.3124C58.506 14.6704 58.0816 14.3079 57.2581 14.3079C56.5865 14.3079 56.1225 14.5537 55.9877 14.9835H54.823C54.946 13.9394 55.9322 13.2698 57.3149 13.2698C58.843 13.2698 59.705 14.0285 59.705 15.3124V19.4655H58.5456V18.6113H58.4505C58.2573 18.9177 57.986 19.1675 57.6643 19.3352C57.3426 19.5028 56.9822 19.5823 56.6196 19.5657C56.3637 19.5922 56.1051 19.565 55.8604 19.4858C55.6157 19.4065 55.3903 19.277 55.1989 19.1056C55.0075 18.9342 54.8542 18.7247 54.7489 18.4907C54.6436 18.2566 54.5887 18.003 54.5877 17.7465ZM58.506 17.2271V16.719L57.0174 16.8139C56.178 16.8699 55.7972 17.1547 55.7972 17.6905C55.7972 18.2376 56.2732 18.5559 56.9276 18.5559C57.1193 18.5753 57.313 18.556 57.4971 18.4991C57.6813 18.4424 57.852 18.3492 57.9993 18.2252C58.1465 18.1012 58.2672 17.949 58.3543 17.7775C58.4414 17.6061 58.4929 17.4189 58.506 17.2271Z" fill="white"/>
<path d="M62.8971 14.3976V19.4662H61.6942V13.3878H65.7076V14.3975L62.8971 14.3976Z" fill="white"/>
<path d="M72.9984 16.423C72.9984 18.3542 72.0188 19.565 70.4801 19.565C70.1023 19.5908 69.725 19.5084 69.3927 19.3275C69.0604 19.1466 68.7869 18.8748 68.6042 18.544H68.509V21.4857H67.306V13.3865H68.4641V14.391H68.5539C68.7399 14.0487 69.017 13.7644 69.3548 13.5693C69.6926 13.3742 70.0779 13.2761 70.4681 13.2857C72.0188 13.2856 72.9984 14.4911 72.9984 16.423ZM71.761 16.423C71.761 15.139 71.1516 14.3632 70.1324 14.3632C69.1199 14.3632 68.4866 15.1555 68.4866 16.4283C68.4866 17.6951 69.1198 18.488 70.1271 18.488C71.1516 18.488 71.761 17.7122 71.761 16.423Z" fill="white"/>
<path d="M74.6004 21.6433V20.6105C74.7306 20.627 74.8618 20.6344 74.993 20.6329C75.2493 20.6518 75.5036 20.5757 75.7071 20.4192C75.9105 20.2625 76.0488 20.0366 76.0955 19.7846L76.1854 19.4886L73.9791 13.3878H75.2891L76.8174 18.2159H76.9125L78.4353 13.3878H79.711L77.4386 19.7173C76.9178 21.1964 76.3414 21.671 75.0988 21.671C74.9984 21.671 74.7128 21.6598 74.6004 21.6433Z" fill="white"/>
<path d="M80.6481 17.7404H81.8459C81.9635 18.2763 82.4672 18.5557 83.1718 18.5557C83.9728 18.5557 84.4646 18.2037 84.4646 17.6566C84.4646 17.0707 84.0231 16.7912 83.1718 16.7912H82.2596V15.8593H83.1559C83.883 15.8593 84.2531 15.5805 84.2531 15.0722C84.2531 14.626 83.8948 14.2853 83.1559 14.2853C82.483 14.2853 81.9913 14.57 81.9133 15.0498H80.7539C80.8406 14.4985 81.1408 14.0031 81.59 13.6702C82.0392 13.3372 82.6014 13.1934 83.1559 13.2696C84.6047 13.2696 85.4336 13.9228 85.4336 14.9497C85.4404 15.2356 85.3485 15.5153 85.1733 15.7418C84.9982 15.9682 84.7502 16.128 84.4712 16.1941V16.289C84.8035 16.3317 85.1085 16.4946 85.3282 16.7468C85.548 16.9988 85.6673 17.3227 85.6637 17.6567C85.6637 18.8122 84.6774 19.5767 83.1718 19.5767C81.8406 19.5766 80.7592 18.9683 80.6481 17.7404Z" fill="white"/>
<path d="M87.3959 19.4662V13.3878H88.5883V17.5686H88.6834L91.4925 13.3878H92.6849V19.4662H91.4925V15.263H91.4027L88.5883 19.4662H87.3959Z" fill="white"/>
<path d="M99.2539 14.3975H97.3348V19.4661H96.1301V14.3975H94.2107V13.3878H99.2539V14.3975Z" fill="white"/>
<path d="M105.735 17.8244C105.571 18.3799 105.216 18.8604 104.733 19.1818C104.251 19.5032 103.669 19.6452 103.092 19.5829C102.69 19.5935 102.291 19.5168 101.922 19.3582C101.554 19.1996 101.224 18.9628 100.955 18.6642C100.688 18.3657 100.489 18.0127 100.371 17.6295C100.253 17.2463 100.221 16.8424 100.276 16.4455C100.223 16.0475 100.256 15.6426 100.373 15.2583C100.49 14.874 100.688 14.5194 100.955 14.2182C101.222 13.9171 101.549 13.6767 101.917 13.513C102.285 13.3494 102.684 13.2665 103.086 13.2699C104.783 13.2699 105.807 14.4254 105.807 16.3342V16.7527H101.503V16.8199C101.484 17.0431 101.512 17.2677 101.585 17.4794C101.659 17.6911 101.775 17.8851 101.928 18.0492C102.081 18.2131 102.267 18.3434 102.473 18.4317C102.68 18.5199 102.902 18.564 103.127 18.5613C103.414 18.5956 103.706 18.5439 103.963 18.4127C104.221 18.2814 104.434 18.0767 104.575 17.8244H105.735ZM101.503 15.8655H104.581C104.596 15.6616 104.568 15.4568 104.499 15.2642C104.43 15.0717 104.322 14.8956 104.181 14.7472C104.04 14.599 103.868 14.4818 103.679 14.4032C103.49 14.3246 103.287 14.2863 103.082 14.2909C102.874 14.288 102.667 14.3269 102.474 14.405C102.281 14.4831 102.106 14.599 101.959 14.7458C101.812 14.8927 101.695 15.0673 101.617 15.2597C101.539 15.452 101.5 15.658 101.503 15.8655Z" fill="white"/>
<path d="M110.834 13.3878H113.582C114.775 13.3878 115.474 13.9903 115.474 14.9334C115.476 15.2327 115.375 15.5235 115.188 15.7572C115 15.991 114.738 16.1535 114.444 16.2174V16.3123C114.8 16.3347 115.134 16.4927 115.377 16.7535C115.62 17.0142 115.753 17.3579 115.748 17.7136C115.748 18.7741 114.948 19.4662 113.611 19.4662H110.834V13.3878ZM112.027 14.3086V15.8826H113.219C113.947 15.8826 114.294 15.6037 114.294 15.0897C114.294 14.6158 113.991 14.3086 113.353 14.3086H112.027ZM112.027 16.7645V18.5455H113.453C114.165 18.5455 114.545 18.2323 114.545 17.6577C114.545 17.0493 114.114 16.7645 113.303 16.7645H112.027Z" fill="white"/>
</g>
<defs>
<clipPath id="clip0_13846_50">
<rect width="160" height="51.7647" fill="white" transform="translate(0.5 0.805542)"/>
</clipPath>
</defs>
</svg>
