<svg width="161" height="53" viewBox="0 0 161 53" fill="none" xmlns="http://www.w3.org/2000/svg">
<g clip-path="url(#clip0_13846_33)">
<path d="M11.2499 52.1365C10.8399 52.1365 10.4398 52.1313 10.033 52.1221C9.19022 52.1112 8.34946 52.038 7.51756 51.9032C6.74186 51.77 5.99041 51.5222 5.288 51.1679C4.59204 50.8166 3.95726 50.356 3.40798 49.8036C2.85076 49.2578 2.38685 48.6248 2.03463 47.9296C1.67853 47.23 1.43209 46.4798 1.30389 45.7057C1.16545 44.8738 1.09054 44.0326 1.07982 43.1894C1.07129 42.9064 1.06012 41.964 1.06012 41.964V10.9634C1.06012 10.9634 1.07202 10.0356 1.07989 9.76306C1.09015 8.92117 1.16462 8.08132 1.30266 7.25073C1.43109 6.47443 1.67772 5.72224 2.03401 5.02022C2.38494 4.3255 2.84628 3.69196 3.40014 3.14419C3.95338 2.59122 4.59019 2.12821 5.28734 1.77205C5.98813 1.41896 6.73816 1.17289 7.5123 1.04209C8.34693 0.905968 9.1906 0.832377 10.0363 0.821926L11.2506 0.805542H149.552L150.78 0.82259C151.619 0.832517 152.454 0.905453 153.281 1.04078C154.063 1.17321 154.821 1.421 155.53 1.77598C156.927 2.49374 158.063 3.6293 158.78 5.0235C159.13 5.72067 159.373 6.46672 159.501 7.23632C159.64 8.07372 159.718 8.92017 159.735 9.76896C159.738 10.1489 159.738 10.5571 159.738 10.9634C159.749 11.4667 159.749 11.9457 159.749 12.4286V40.5145C159.749 41.0021 159.749 41.4778 159.738 41.9574C159.738 42.3938 159.738 42.7937 159.733 43.2051C159.717 44.0387 159.64 44.87 159.503 45.6925C159.377 46.4724 159.132 47.2281 158.776 47.9336C158.422 48.6213 157.961 49.2489 157.409 49.7931C156.859 50.3485 156.224 50.8118 155.526 51.1653C154.82 51.5223 154.063 51.7711 153.281 51.9032C152.449 52.0387 151.608 52.1119 150.766 52.1221C150.371 52.1313 149.959 52.1365 149.558 52.1365L148.1 52.1392L11.2499 52.1365Z" fill="black"/>
<path fill-rule="evenodd" clip-rule="evenodd" d="M125.622 37.8684H127.711V24.1039H125.622V37.8684ZM144.44 29.0618L142.045 35.0309H141.974L139.489 29.0618H137.237L140.965 37.4035L138.84 42.0436H141.019L146.762 29.0618H144.44ZM132.593 36.3053C131.907 36.3053 130.952 35.9692 130.952 35.1372C130.952 34.0744 132.143 33.6664 133.168 33.6664C134.087 33.6664 134.518 33.8618 135.077 34.128C135 34.7248 134.706 35.2741 134.25 35.6743C133.792 36.0745 133.204 36.2986 132.593 36.3053ZM132.843 28.7611C131.331 28.7611 129.765 29.416 129.117 30.8686L130.971 31.6309C131.368 30.8686 132.105 30.6206 132.88 30.6206C133.961 30.6206 135.058 31.2572 135.077 32.392V32.5327C134.698 32.3201 133.889 32.0023 132.898 32.0023C130.899 32.0023 128.863 33.0824 128.863 35.1007C128.863 36.943 130.503 38.1293 132.339 38.1293C133.744 38.1293 134.518 37.5098 135.005 36.783H135.077V37.8459H137.093V32.5691C137.093 30.1246 135.238 28.7611 132.843 28.7611ZM119.933 30.7377H116.961V26.0192H119.933C121.494 26.0192 122.382 27.2914 122.382 28.3779C122.382 29.445 121.495 30.7377 119.933 30.7377ZM119.878 24.1028H114.873V37.8684H116.961V32.654H119.88C122.194 32.654 124.471 31.005 124.471 28.3779C124.471 25.7518 122.195 24.1039 119.88 24.1039L119.878 24.1028ZM92.5818 36.3085C91.1386 36.3085 89.9313 35.12 89.9313 33.4882C89.9313 31.8391 91.1386 30.6324 92.5818 30.6324C94.0073 30.6324 95.1255 31.8391 95.1255 33.4882C95.1255 35.12 94.0073 36.3085 92.5818 36.3085ZM94.9805 29.8347H94.9094C94.4397 29.284 93.5385 28.788 92.4017 28.788C90.0209 28.788 87.8387 30.845 87.8387 33.4882C87.8387 36.1131 90.0209 38.154 92.4017 38.154C93.5385 38.154 94.4397 37.6569 94.9094 37.089H94.9805V37.7632C94.9805 39.5561 94.0082 40.5138 92.4377 40.5138C91.1572 40.5138 90.3636 39.6087 90.0383 38.8454L88.2174 39.5904C88.7393 40.8325 90.1289 42.3582 92.4377 42.3582C94.8907 42.3582 96.966 40.9388 96.966 37.4797V29.0704H94.9805V29.8337V29.8347ZM98.4078 37.8695H100.502V24.1028H98.4088V37.8684L98.4078 37.8695ZM103.584 33.3282C103.531 31.5203 105.01 30.5969 106.074 30.5969C106.904 30.5969 107.608 31.005 107.842 31.5901L103.584 33.3293V33.3282ZM110.079 31.7672C109.683 30.7215 108.473 28.788 106.003 28.788C103.549 28.788 101.511 30.685 101.511 33.471C101.511 36.0959 103.531 38.154 106.236 38.154C108.42 38.154 109.683 36.841 110.205 36.0788L108.582 35.0137C108.042 35.7942 107.301 36.3085 106.236 36.3085C105.173 36.3085 104.414 35.8297 103.927 34.8903L110.295 32.3008L110.079 31.7672ZM59.3515 30.2244V32.2106H64.1841C64.04 33.3293 63.6612 34.1452 63.0848 34.712C62.3807 35.4045 61.2804 36.1667 59.3515 36.1667C56.3745 36.1667 54.0472 33.8081 54.0472 30.8815C54.0472 27.9527 56.3745 25.5951 59.3503 25.5951C60.9562 25.5951 62.1285 26.2157 62.9942 27.0144L64.4199 25.6123C63.2104 24.4775 61.6057 23.6068 59.3503 23.6068C55.2742 23.6068 51.8476 26.8717 51.8476 30.8815C51.8476 34.8903 55.2753 38.154 59.3503 38.154C61.5511 38.154 63.2104 37.4454 64.5094 36.1141C65.8434 34.8012 66.2593 32.9567 66.2593 31.4655C66.2593 31.0039 66.2232 30.5798 66.1502 30.2244H59.3503H59.3515ZM71.7534 36.3074C70.3092 36.3074 69.0648 35.1372 69.0648 33.4699C69.0648 31.7844 70.3092 30.6314 71.7534 30.6314C73.1944 30.6314 74.4399 31.7844 74.4399 33.4699C74.4399 35.1372 73.1955 36.3074 71.7534 36.3074ZM71.7534 28.7869C69.1183 28.7869 66.9721 30.7559 66.9721 33.4699C66.9721 36.1647 69.1183 38.1529 71.7534 38.1529C74.3865 38.1529 76.5327 36.1657 76.5327 33.4699C76.5327 30.7559 74.3865 28.7869 71.7534 28.7869ZM82.1796 36.3074C80.7365 36.3074 79.492 35.1372 79.492 33.4699C79.492 31.7844 80.7365 30.6314 82.1796 30.6314C83.6228 30.6314 84.8673 31.7844 84.8673 33.4699C84.8673 35.1372 83.6228 36.3074 82.1796 36.3074ZM82.1796 28.7869C79.5466 28.7869 77.4005 30.7559 77.4005 33.4699C77.4005 36.1647 79.5466 38.1529 82.1796 38.1529C84.8137 38.1529 86.9599 36.1657 86.9599 33.4699C86.9599 30.7559 84.8137 28.7869 82.1796 28.7869Z" fill="white"/>
<path fill-rule="evenodd" clip-rule="evenodd" d="M17.0607 14.692V39.0228C17.0607 39.7045 17.2517 40.2294 17.5781 40.5687L17.6611 40.6481L31.5205 27.0201V26.698L17.6611 13.0667L17.5781 13.1461C17.2517 13.4853 17.0607 14.0103 17.0607 14.692Z" fill="#00CAFF"/>
<path fill-rule="evenodd" clip-rule="evenodd" d="M36.1394 31.5638L31.5219 27.0183V26.6962L36.1416 22.1517L41.7198 25.2684C43.2819 26.1422 43.2819 27.5723 41.7198 28.4451L36.2453 31.5048L36.1394 31.5638Z" fill="#FFCD00"/>
<path fill-rule="evenodd" clip-rule="evenodd" d="M36.245 31.5044L31.5205 26.8579L17.5781 40.5697C18.0945 41.1065 18.9448 41.172 19.9032 40.6374L36.245 31.5044Z" fill="#F53349"/>
<path fill-rule="evenodd" clip-rule="evenodd" d="M36.245 22.2102L19.9032 13.0794C18.9448 12.5447 18.0945 12.6102 17.5781 13.147L31.5205 26.8589L36.245 22.2124" fill="#00F076"/>
<path fill-rule="evenodd" clip-rule="evenodd" d="M54.5952 15.8102C54.606 16.8548 54.3943 17.6986 53.9566 18.3385H57.3515V13.3549H54.5952V15.8102ZM53.0461 20.5512H52.2208V18.3385H52.8769C53.4598 17.8446 53.7437 17.0019 53.7316 15.8102V12.5432H58.2161V18.3385H58.9671V20.5512H58.1418V19.1501H53.0461V20.5522V20.5512Z" fill="white"/>
<path fill-rule="evenodd" clip-rule="evenodd" d="M54.5954 15.8109H54.483V15.9011C54.483 16.8888 54.2724 17.6789 53.864 18.2769L53.7461 18.4486H57.4642V13.2461H54.4841V15.8119H54.7079V13.465H57.2415V18.2285H53.958V18.3391L54.0507 18.4003C54.4918 17.7551 54.7079 16.9188 54.7079 15.9011V15.8097H54.5966L54.5954 15.8109ZM53.0464 20.5518V20.4423H52.3335V18.4486H52.9198L52.9515 18.4229C53.5562 17.9075 53.8444 17.053 53.8434 15.8817V12.6534H58.1051V18.4486H58.855V20.4423H58.2524V19.0402H52.9351V20.5518H53.0464H53.1589V19.2603H58.0286V20.6624H59.0788V18.2275H58.3289V12.4334H53.6195V15.8817C53.6195 17.0218 53.3401 17.8035 52.8052 18.2544L52.8773 18.3391V18.2275H52.1098V20.6613H53.1578V20.5507H53.0464V20.5518ZM61.4116 17.7433C61.647 17.9839 61.9306 18.1739 62.2443 18.3016C62.558 18.4292 62.8951 18.4918 63.2346 18.4851C63.9551 18.4851 64.5642 18.2382 65.0598 17.7433C65.5587 17.2473 65.8065 16.616 65.8065 15.8474C65.8065 15.0787 65.5587 14.4463 65.0598 13.9503C64.824 13.7096 64.5401 13.5196 64.226 13.3921C63.9119 13.2646 63.5743 13.2024 63.2346 13.2095C62.5163 13.2095 61.9083 13.4554 61.4116 13.9503C60.9139 14.4463 60.666 15.0776 60.666 15.8474C60.666 16.615 60.9139 17.2473 61.4116 17.7433ZM65.6995 18.2973C65.039 18.964 64.2171 19.2978 63.2346 19.2978C62.2521 19.2978 61.4334 18.965 60.773 18.2973C60.1125 17.6295 59.7829 16.8125 59.7829 15.8474C59.7829 14.8811 60.1125 14.0652 60.773 13.3974C61.4323 12.7297 62.2533 12.3958 63.2346 12.3958C64.2116 12.3958 65.0315 12.7307 65.6951 13.4017C66.3567 14.0716 66.6885 14.8865 66.6885 15.8474C66.6885 16.8136 66.3578 17.6295 65.6995 18.2973Z" fill="white"/>
<path fill-rule="evenodd" clip-rule="evenodd" d="M61.4118 17.7428L61.331 17.8201C61.8474 18.3355 62.4903 18.5973 63.2348 18.5963C63.5896 18.6029 63.9419 18.5374 64.2697 18.4038C64.5974 18.2702 64.8937 18.0715 65.1397 17.8201C65.6593 17.3048 65.9203 16.638 65.9191 15.8468C65.9191 15.0545 65.6593 14.3889 65.1397 13.8736C64.8936 13.6224 64.5973 13.4238 64.2696 13.2905C63.9418 13.1571 63.5895 13.0918 63.2348 13.0985C62.8804 13.0921 62.5284 13.1577 62.2008 13.2911C61.8733 13.4244 61.5772 13.6228 61.331 13.8736C60.8136 14.3889 60.5527 15.0545 60.5537 15.8468C60.5527 16.638 60.8136 17.3058 61.331 17.8201L61.4904 17.6655C61.0156 17.1909 60.7775 16.5919 60.7775 15.8468C60.7775 15.1007 61.0156 14.5016 61.4904 14.0271C61.9707 13.5515 62.5427 13.3186 63.2348 13.3186C63.9291 13.3186 64.5022 13.5515 64.9814 14.0271L64.9825 14.0293L64.9803 14.0271C65.4563 14.5028 65.6942 15.1007 65.6953 15.8468C65.6942 16.5919 65.4563 17.1888 64.9803 17.6655C64.5022 18.1411 63.9291 18.3741 63.2348 18.3751C62.91 18.3816 62.5873 18.3219 62.2872 18.1998C61.9869 18.0777 61.7156 17.8958 61.4904 17.6655L61.4118 17.7428ZM65.6997 18.2968L65.6189 18.2194C64.977 18.8668 64.1911 19.1857 63.2348 19.1868C62.2797 19.1868 61.4947 18.8668 60.854 18.2194C60.2131 17.571 59.8966 16.7873 59.8955 15.8468C59.8955 14.9053 60.2131 14.1216 60.854 13.4743C61.4947 12.8257 62.2797 12.5069 63.2348 12.5058C64.1856 12.5058 64.9705 12.8279 65.6146 13.4774C66.2576 14.1302 66.5752 14.9117 66.5752 15.8468C66.5752 16.7873 66.2586 17.571 65.6189 18.2194L65.6997 18.2968L65.7794 18.3719C66.4584 17.6869 66.8012 16.8367 66.8001 15.8468C66.8012 14.8623 66.4573 14.0131 65.7739 13.3239C65.0928 12.6336 64.238 12.2846 63.2348 12.2858C62.2283 12.2846 61.3714 12.6325 60.6924 13.3207H60.6935C60.0134 14.0068 59.6706 14.856 59.6718 15.8468C59.6706 16.8367 60.0134 17.6869 60.6935 18.3719C61.3703 19.0612 62.2283 19.409 63.2348 19.4069C64.2424 19.409 65.1015 19.0612 65.7783 18.3719L65.6997 18.2968ZM71.0334 19.2973C70.0444 19.2973 69.2159 18.9678 68.5478 18.3096C67.8775 17.6526 67.5435 16.8302 67.5435 15.8468C67.5435 14.8623 67.8775 14.0411 68.5478 13.3829C69.2159 12.7249 70.0444 12.3952 71.0334 12.3952C72.0465 12.3952 72.8695 12.7549 73.5005 13.4743L72.9001 14.0475C72.4438 13.4871 71.8205 13.208 71.0334 13.208C70.302 13.208 69.6831 13.4506 69.1809 13.938C68.6766 14.4222 68.4244 15.0588 68.4244 15.8468C68.4244 16.6337 68.6766 17.2715 69.1809 17.7557C69.6831 18.242 70.3009 18.4847 71.0334 18.4847C71.8412 18.4847 72.5289 18.1658 73.0977 17.5259L73.6981 18.1164C73.3838 18.4852 72.9895 18.7801 72.5443 18.9796C72.0707 19.1941 71.5547 19.3027 71.0334 19.2973Z" fill="white"/>
<path fill-rule="evenodd" clip-rule="evenodd" d="M71.0333 19.2973V19.1868C70.0705 19.1868 69.2759 18.8701 68.6263 18.2323C67.9768 17.5925 67.657 16.8045 67.6548 15.8469C67.657 14.887 67.9768 14.1001 68.6263 13.4602C69.2769 12.8226 70.0705 12.507 71.0333 12.5048C72.0202 12.507 72.804 12.8505 73.4175 13.5472L73.5015 13.4743L73.4241 13.3948L72.8225 13.9681L72.899 14.0476L72.9863 13.9788C72.5125 13.3916 71.8477 13.0963 71.0333 13.0985C70.2768 13.0974 69.6241 13.3519 69.1012 13.8575C68.575 14.3643 68.3119 15.0374 68.3131 15.8469C68.3119 16.6553 68.575 17.3284 69.1023 17.8352C69.6241 18.3398 70.2768 18.5963 71.0333 18.5963C71.8707 18.5963 72.5966 18.2592 73.1817 17.5979L73.0976 17.5259L73.018 17.6032L73.6183 18.1937L73.698 18.1164L73.6118 18.0466C73.3149 18.3967 72.9459 18.6726 72.4973 18.8787C72.0497 19.0848 71.5617 19.1868 71.0333 19.1868V19.4069C71.5923 19.4069 72.113 19.2985 72.5911 19.0784C73.0681 18.8605 73.4666 18.563 73.7843 18.1872L73.8498 18.1089L73.0922 17.3649L73.0136 17.4529C72.4601 18.0724 71.8095 18.373 71.0333 18.3763C70.326 18.3741 69.742 18.1443 69.2584 17.6784C68.7781 17.2125 68.5379 16.6113 68.5368 15.8469C68.5368 15.0825 68.777 14.4812 69.2584 14.0153C69.742 13.5483 70.326 13.3196 71.0333 13.3174C71.7942 13.3196 72.3761 13.5826 72.8127 14.1162L72.8891 14.2096L73.579 13.5547L73.6555 13.4806L73.5856 13.4033C72.9361 12.6594 72.0726 12.2836 71.0333 12.2858C70.0204 12.2847 69.1557 12.6272 68.468 13.3057C67.777 13.9821 67.431 14.8377 67.431 15.8469C67.431 16.8561 67.777 17.7106 68.468 18.388C69.1557 19.0666 70.0204 19.4079 71.0333 19.4079V19.2973ZM77.1891 19.1502H76.3267V13.354H74.4491V12.5423H79.0656V13.354H77.1891V19.1482" fill="white"/>
<path fill-rule="evenodd" clip-rule="evenodd" d="M77.189 19.1507V19.0401H76.438V13.2449H74.5604V12.6544H78.9531V13.2449H77.0766V19.1496H77.189H77.3015V13.465H79.1769V12.4343H74.3366V13.465H76.2131V19.2602H77.3004V19.1507H77.1879H77.189ZM84.992 12.5438L82.4496 18.1168C82.1003 18.9038 81.5773 19.2978 80.8842 19.2978C80.6768 19.2978 80.4552 19.2484 80.2161 19.1496L80.441 18.3658C80.5862 18.4453 80.7357 18.485 80.8929 18.485C81.0927 18.485 81.2477 18.4474 81.3569 18.3701C81.466 18.294 81.5675 18.1533 81.6625 17.9514L81.9059 17.4254L79.6463 12.5438H80.6582L82.3186 16.3357H82.3557L83.9779 12.5438H84.992Z" fill="white"/>
<path fill-rule="evenodd" clip-rule="evenodd" d="M84.992 12.5439L84.8893 12.4988L82.348 18.0718C82.002 18.8362 81.5293 19.184 80.8842 19.1883C80.6687 19.183 80.4564 19.1356 80.2597 19.0488L80.2161 19.1497L80.3252 19.1797L80.5501 18.396L80.4409 18.366L80.3864 18.4626C80.5406 18.5497 80.7151 18.5959 80.8929 18.5968C81.1069 18.5958 81.2859 18.556 81.4224 18.4594C81.5566 18.3638 81.6647 18.2093 81.764 17.9967L82.0292 17.4244L79.8187 12.6534H80.585L82.2444 16.4464H82.4299L84.0532 12.6534H84.992V12.5439V12.4333H83.9047L82.2531 16.2951L82.3557 16.3369V16.2263H82.3186V16.3369L82.4222 16.2939L80.7324 12.4333H79.4716L81.7836 17.4255L81.5609 17.9043C81.4736 18.0987 81.3776 18.2232 81.2935 18.2812C81.2117 18.3391 81.0795 18.3756 80.894 18.3756C80.7552 18.3744 80.6192 18.3382 80.4988 18.2704L80.3743 18.2006L80.1102 19.1207L80.0829 19.2142L80.1746 19.2517C80.4234 19.3548 80.6592 19.4074 80.8842 19.4074C81.6264 19.4117 82.1974 18.9715 82.5543 18.162H82.5532L85.1655 12.4333H84.9908V12.5439H84.992ZM85.97 19.1508V12.5428H90.8289V19.1487H89.9666V13.3555H86.8324V19.1497H85.97" fill="white"/>
<path fill-rule="evenodd" clip-rule="evenodd" d="M85.97 19.1508H86.0813V12.6524H90.7175V19.0391H90.0777V13.245H86.7199V19.0402H85.97V19.1497V19.2603H86.9437V13.465H89.854V19.2603H90.9413V12.4333H85.8575V19.2613H85.9689V19.1497L85.97 19.1508ZM92.368 19.1508V12.5428H93.2307V15.375H96.5898V12.5439H97.4525V19.1497H96.5908V16.1694H93.2307V19.1508H92.368Z" fill="white"/>
<path fill-rule="evenodd" clip-rule="evenodd" d="M92.368 19.1507H92.4793V12.6523H93.1193V15.4845H96.7021V12.6534H97.3402V19.0402H96.7021V16.0588H93.1193V19.0391H92.368V19.1486V19.2592H93.3429V16.28H96.4785V19.2603H97.5657V12.4334H96.4785V15.2655H93.3429V12.4334H92.2555V19.2613H92.368V19.1497V19.1507ZM100.199 17.7433C100.434 17.9839 100.717 18.1739 101.031 18.3016C101.345 18.4292 101.682 18.4918 102.021 18.4851C102.742 18.4851 103.351 18.2382 103.847 17.7433C104.346 17.2473 104.594 16.616 104.594 15.8474C104.594 15.0787 104.346 14.4463 103.847 13.9503C103.611 13.7098 103.328 13.5198 103.013 13.3922C102.7 13.2648 102.362 13.2026 102.022 13.2095C101.303 13.2095 100.695 13.4554 100.199 13.9503C99.7019 14.4463 99.453 15.0776 99.453 15.8474C99.453 16.615 99.7019 17.2473 100.199 17.7433ZM104.486 18.2973C103.826 18.964 103.004 19.2978 102.022 19.2978C101.04 19.2978 100.219 18.965 99.5596 18.2973C98.8991 17.6295 98.5706 16.8125 98.5706 15.8474C98.5706 14.8811 98.8991 14.0652 99.5596 13.3974C100.219 12.7297 101.04 12.3958 102.022 12.3958C102.999 12.3958 103.818 12.7307 104.482 13.4017C105.145 14.0716 105.475 14.8865 105.475 15.8474C105.475 16.8136 105.145 17.6295 104.486 18.2973Z" fill="white"/>
<path fill-rule="evenodd" clip-rule="evenodd" d="M100.199 17.7428L100.118 17.8201C100.634 18.3355 101.278 18.5973 102.022 18.5963C102.378 18.6027 102.73 18.537 103.057 18.4035C103.386 18.2699 103.681 18.0713 103.927 17.8201C104.446 17.3048 104.707 16.638 104.706 15.8468C104.707 15.0545 104.446 14.3889 103.926 13.8736C103.68 13.6226 103.385 13.4241 103.057 13.2908C102.73 13.1573 102.377 13.0919 102.022 13.0985C101.668 13.0919 101.316 13.1573 100.988 13.2907C100.66 13.424 100.364 13.6225 100.118 13.8736C99.6008 14.3889 99.3398 15.0545 99.3407 15.8468C99.3407 16.638 99.6008 17.3058 100.118 17.8201L100.278 17.6655C99.802 17.1909 99.5653 16.5919 99.5634 15.8468C99.5653 15.1007 99.802 14.5016 100.278 14.0271C100.757 13.5515 101.33 13.3186 102.022 13.3186C102.717 13.3186 103.289 13.5515 103.768 14.0271C104.245 14.5028 104.481 15.1007 104.482 15.8468C104.481 16.5919 104.245 17.1888 103.768 17.6655C103.29 18.1411 102.717 18.3741 102.021 18.3751C101.697 18.3815 101.375 18.3217 101.075 18.1996C100.774 18.0774 100.504 17.8956 100.278 17.6655L100.199 17.7428ZM104.487 18.2968L104.406 18.2194C103.765 18.8668 102.98 19.1857 102.022 19.1868C101.066 19.1868 100.282 18.8668 99.6411 18.2194C99.0001 17.571 98.6839 16.7873 98.682 15.8468C98.6839 14.9053 99.0001 14.1216 99.6411 13.4743C100.282 12.8257 101.066 12.5069 102.022 12.5058C102.972 12.5058 103.756 12.8279 104.403 13.4774C105.045 14.1302 105.363 14.9117 105.363 15.8468C105.363 16.7873 105.046 17.571 104.406 18.2194L104.566 18.3719C105.247 17.6869 105.588 16.8367 105.587 15.8468C105.588 14.8623 105.244 14.0131 104.561 13.3239C103.88 12.6336 103.026 12.2846 102.022 12.2858C101.016 12.2846 100.158 12.6325 99.4801 13.3207C98.7999 14.0068 98.4584 14.856 98.4584 15.8468C98.4584 16.8367 98.7999 17.6869 99.4801 18.3719C100.158 19.0612 101.017 19.409 102.022 19.4069C103.03 19.409 103.887 19.0612 104.566 18.3719L104.487 18.2968ZM109.867 18.3386H111.604C111.936 18.3386 112.204 18.2237 112.412 17.9951C112.617 17.7697 112.721 17.5206 112.721 17.2479C112.717 16.969 112.602 16.7027 112.401 16.506C112.19 16.2827 111.91 16.1689 111.566 16.1689H109.867V18.3376V18.3386ZM109.867 15.3755H111.435C111.761 15.3755 112.022 15.2703 112.218 15.0567C112.405 14.8711 112.511 14.6218 112.514 14.361C112.512 14.1026 112.409 13.8549 112.228 13.6685C112.132 13.5654 112.016 13.4839 111.886 13.4297C111.756 13.3755 111.615 13.3501 111.475 13.3551H109.867V15.3755ZM109.005 19.1492V12.5435H111.435C111.96 12.5435 112.416 12.7141 112.799 13.0555C113.185 13.3969 113.378 13.8264 113.378 14.3428C113.378 14.6562 113.295 14.9333 113.128 15.1726C112.964 15.412 112.742 15.5946 112.467 15.718V15.7535C112.798 15.8651 113.071 16.0551 113.284 16.3268C113.496 16.596 113.608 16.928 113.603 17.2683C113.603 17.8083 113.401 18.2582 112.997 18.6146C112.593 18.971 112.117 19.1492 111.567 19.1492H109.006H109.005Z" fill="white"/>
<path fill-rule="evenodd" clip-rule="evenodd" d="M109.867 18.3393V18.4488H111.604C111.961 18.4499 112.27 18.321 112.494 18.0698C112.716 17.8282 112.833 17.5481 112.833 17.2485C112.829 16.9421 112.704 16.6494 112.484 16.4326C112.251 16.1835 111.935 16.0579 111.567 16.0601H109.755V18.4488H109.867V18.3393H109.979V16.2802H111.565C111.886 16.2802 112.127 16.381 112.318 16.5808C112.517 16.7923 112.607 17.008 112.609 17.2485C112.606 17.5003 112.506 17.7415 112.328 17.9227C112.238 18.0233 112.126 18.103 112 18.156C111.876 18.2089 111.74 18.2338 111.604 18.2287H109.868L109.867 18.3393ZM109.867 15.3762V15.4857H111.434C111.784 15.4878 112.085 15.3686 112.302 15.1314C112.513 14.9059 112.626 14.6429 112.626 14.3617C112.626 14.0825 112.518 13.8195 112.31 13.5962C112.205 13.481 112.076 13.3899 111.931 13.3292C111.786 13.2686 111.63 13.2399 111.473 13.2451H109.756V15.4857H109.867V15.3762H109.979V13.4652H111.473C111.761 13.4673 111.974 13.5575 112.144 13.7433C112.32 13.9365 112.401 14.1373 112.402 14.3617C112.402 14.5849 112.317 14.7868 112.135 14.9843C111.958 15.1733 111.736 15.2646 111.434 15.2656H109.867V15.3762ZM109.004 19.1499H109.118V12.6557H111.434C111.936 12.6557 112.358 12.8146 112.725 13.1388C113.089 13.463 113.264 13.8549 113.265 14.3444C113.265 14.6386 113.189 14.892 113.036 15.1121C112.884 15.3346 112.67 15.5102 112.42 15.6188L112.355 15.6478V15.8346L112.432 15.8604C112.742 15.9646 112.995 16.1406 113.195 16.3951V16.3961V16.3939C113.392 16.6473 113.49 16.934 113.49 17.27C113.497 17.5088 113.449 17.746 113.351 17.9645C113.252 18.1829 113.106 18.3773 112.923 18.5336C112.553 18.8679 112.068 19.0498 111.565 19.0414H109.005V19.1509V19.2615H111.565C112.141 19.2626 112.65 19.0726 113.072 18.6978C113.497 18.3232 113.716 17.838 113.714 17.27C113.72 16.9052 113.599 16.5493 113.372 16.2608L113.371 16.2586V16.2598C113.15 15.9762 112.848 15.7642 112.504 15.651L112.467 15.7552H112.579V15.7197H112.467L112.513 15.8196C112.8 15.6941 113.046 15.4918 113.22 15.2356C113.399 14.9779 113.489 14.6773 113.489 14.3444C113.495 14.086 113.442 13.8295 113.336 13.5931C113.23 13.3567 113.073 13.1458 112.874 12.9756L112.872 12.9735H112.874C112.482 12.6196 111.967 12.4269 111.434 12.4345H108.893V19.2626H109.005V19.1509L109.004 19.1499Z" fill="white"/>
</g>
<defs>
<clipPath id="clip0_13846_33">
<rect width="160" height="51.462" fill="white" transform="translate(0.5 0.805542)"/>
</clipPath>
</defs>
</svg>
