<svg width="60" height="60" viewBox="0 0 60 60" fill="none" xmlns="http://www.w3.org/2000/svg">
<rect width="60" height="60" fill="url(#paint0_linear_14998_16106)"/>
<rect width="60" height="60" fill="url(#paint1_linear_14998_16106)"/>
<rect width="60" height="60" fill="url(#paint2_linear_14998_16106)"/>
<path d="M20.6699 29.9501L25.5999 26.6401C26.3899 26.1101 27.5299 26.1701 28.2399 26.7801L28.5699 27.0701C29.3499 27.7401 30.6099 27.7401 31.3899 27.0701L35.5499 23.5001C36.3299 22.8301 37.5899 22.8301 38.3699 23.5001L39.9999 24.9001M27 33H33C38 33 40 31 40 26V20C40 15 38 13 33 13H27C22 13 20 15 20 20V26C20 31 22 33 27 33ZM29 19C29 20.1046 28.1046 21 27 21C25.8954 21 25 20.1046 25 19C25 17.8954 25.8954 17 27 17C28.1046 17 29 17.8954 29 19Z" stroke="#E2E4E9" stroke-width="1.2" stroke-linecap="round" stroke-linejoin="round"/>
<path d="M16.4501 47H15.4657V44.1919H12.2094V47H11.225V40.6587H12.2094V43.3394H15.4657V40.6587H16.4501V47ZM19.7019 43.0581C19.0383 43.0581 18.5725 43.5635 18.5241 44.2622H20.8356C20.8137 43.5547 20.3654 43.0581 19.7019 43.0581ZM20.8313 45.6421H21.7321C21.6003 46.4858 20.8005 47.0879 19.7414 47.0879C18.3835 47.0879 17.5617 46.1694 17.5617 44.7104C17.5617 43.2603 18.3967 42.2935 19.7019 42.2935C20.9851 42.2935 21.7849 43.1987 21.7849 44.6006V44.9258H18.5197V44.9829C18.5197 45.7871 19.0031 46.3188 19.7634 46.3188C20.3039 46.3188 20.7038 46.0464 20.8313 45.6421ZM26.1265 42.377V43.1284H24.6763V47H23.7315V43.1284H22.2813V42.377H26.1265ZM31.2414 46.2969V43.0801C30.3405 43.1021 29.7648 43.7085 29.7648 44.6885C29.7648 45.6729 30.3361 46.2705 31.2414 46.2969ZM33.632 44.6885C33.632 43.7041 33.0563 43.1064 32.1554 43.0801V46.2969C33.0519 46.2749 33.632 45.6729 33.632 44.6885ZM31.237 47.0615C29.7648 47.0308 28.8024 46.1299 28.8024 44.6885C28.8024 43.2559 29.7692 42.3418 31.237 42.3198V40.8784H32.1598V42.3198C33.6232 42.3462 34.59 43.2515 34.59 44.6885C34.59 46.1211 33.6188 47.0352 32.1598 47.0615V48.5293H31.237V47.0615ZM37.5781 47.0879C36.2554 47.0879 35.3852 46.1782 35.3852 44.6885C35.3852 43.2031 36.2597 42.2935 37.5781 42.2935C38.8965 42.2935 39.771 43.2031 39.771 44.6885C39.771 46.1782 38.9009 47.0879 37.5781 47.0879ZM37.5781 46.3057C38.3252 46.3057 38.8042 45.7168 38.8042 44.6885C38.8042 43.6646 38.3208 43.0757 37.5781 43.0757C36.8354 43.0757 36.352 43.6646 36.352 44.6885C36.352 45.7168 36.8354 46.3057 37.5781 46.3057ZM44.1258 42.377V43.1284H42.6756V47H41.7308V43.1284H40.2806V42.377H44.1258ZM46.9029 47.0879C45.5802 47.0879 44.7101 46.1782 44.7101 44.6885C44.7101 43.2031 45.5846 42.2935 46.9029 42.2935C48.2213 42.2935 49.0958 43.2031 49.0958 44.6885C49.0958 46.1782 48.2257 47.0879 46.9029 47.0879ZM46.9029 46.3057C47.65 46.3057 48.129 45.7168 48.129 44.6885C48.129 43.6646 47.6456 43.0757 46.9029 43.0757C46.1603 43.0757 45.6769 43.6646 45.6769 44.6885C45.6769 45.7168 46.1603 46.3057 46.9029 46.3057Z" fill="#E2E4E9"/>
<defs>
<linearGradient id="paint0_linear_14998_16106" x1="6.75" y1="46.5934" x2="52.0312" y2="11.9058" gradientUnits="userSpaceOnUse">
<stop stop-color="#4F2CFF"/>
<stop offset="1" stop-color="#6A4CFF"/>
</linearGradient>
<linearGradient id="paint1_linear_14998_16106" x1="-12.2813" y1="59.9996" x2="184.406" y2="-73.5003" gradientUnits="userSpaceOnUse">
<stop stop-color="#8F7DE8"/>
<stop offset="1" stop-color="#EBE8F7"/>
</linearGradient>
<linearGradient id="paint2_linear_14998_16106" x1="-3.57628e-06" y1="60" x2="60" y2="-3.57628e-06" gradientUnits="userSpaceOnUse">
<stop stop-color="#565D76"/>
<stop offset="0.494792" stop-color="#8991A9"/>
<stop offset="1" stop-color="#C4C8D4"/>
</linearGradient>
</defs>
</svg>
