<svg width="181" height="77" viewBox="0 0 181 77" fill="none" xmlns="http://www.w3.org/2000/svg">
<path fill-rule="evenodd" clip-rule="evenodd" d="M55.0387 42.8232C59.1821 45.4165 63.0392 47.8245 67.7048 47.8245C70.2482 47.8245 72.6905 46.8142 74.4927 45.0123C76.2949 43.2105 77.3055 40.7687 77.3055 38.226C77.3055 35.6832 76.2949 33.2414 74.4927 31.4396C72.6905 29.6377 70.2482 28.6274 67.7048 28.6274C63.1311 28.6274 59.3344 30.9739 55.2831 33.4777C55.2017 33.528 55.1203 33.5783 55.0387 33.6287L53.1091 34.8311C50.5964 36.3969 50.5964 40.055 53.1091 41.6208L55.0387 42.8232ZM53.874 29.9834C58.4978 28.8863 62.7991 27.8658 66.0254 24.6483C66.0298 24.6439 66.0373 24.647 66.0373 24.6532C66.0373 24.6594 66.0449 24.6624 66.0492 24.658C67.8272 22.8574 68.8333 20.4208 68.8165 17.8837C68.8165 15.3409 67.7891 12.8992 65.9868 11.1142C64.1846 9.32915 61.7591 8.31878 59.2158 8.31878C56.6725 8.31878 54.247 9.32915 52.4448 11.1142C49.1822 14.376 48.1467 18.7843 47.0435 23.4809L47.0212 23.5755L46.5139 25.7897C45.8536 28.6712 48.4395 31.2487 51.3189 30.5791L53.5565 30.0587C53.6625 30.0335 53.7683 30.0084 53.874 29.9834ZM34.4224 22.2451L35.6364 24.1808C37.2071 26.6854 40.8583 26.6793 42.4208 24.1696L43.6189 22.2451L43.6627 22.175C46.2234 18.0757 48.6214 14.2367 48.6214 9.59859C48.6214 7.0558 47.6108 4.61406 45.8085 2.81222C44.0063 1.01038 41.564 0 39.0207 0C36.4773 0 34.035 1.01038 32.2328 2.81222C30.4306 4.61406 29.42 7.0558 29.42 9.59859C29.42 14.2045 31.8019 18.0331 34.3529 22.1333L34.4224 22.2451ZM24.2322 30.0756L26.464 30.5901C29.3454 31.2545 31.9267 28.6707 31.2595 25.7899L30.7506 23.5923C30.7238 23.4801 30.6972 23.3681 30.6705 23.2563C29.5737 18.651 28.5501 14.3533 25.327 11.131C23.5248 9.34599 21.0994 8.33562 18.556 8.33562C16.0127 8.33562 13.5873 9.34599 11.785 11.131C9.99963 12.916 8.97219 15.3409 8.97219 17.8837C8.97219 20.4265 9.96595 22.8514 11.7513 24.6532C15.0306 27.915 19.4399 28.9503 24.1375 30.0533L24.2322 30.0756ZM24.6964 41.6208C27.2091 40.055 27.2091 36.3969 24.6964 34.8311L22.7869 33.6412C22.7736 33.6329 22.7613 33.6231 22.7502 33.612C22.7389 33.6008 22.7263 33.5908 22.7127 33.5824C22.6605 33.5502 22.6084 33.5179 22.5562 33.4857C18.4797 30.9668 14.6666 28.6108 10.1007 28.6274C7.55735 28.6274 5.11507 29.6377 3.31284 31.4396C1.5106 33.2414 0.5 35.6832 0.5 38.226C0.5 40.7687 1.5106 43.2105 3.31284 45.0123C5.11507 46.8142 7.55735 47.8245 10.1007 47.8245C14.6744 47.8245 18.4712 45.478 22.5224 42.9742C22.6038 42.9239 22.6853 42.8736 22.7669 42.8232L24.6964 41.6208ZM23.8756 46.4781C19.2853 47.5707 14.9865 48.594 11.7703 51.7966C11.7587 51.8081 11.7416 51.8123 11.7261 51.8071C11.7106 51.8019 11.6935 51.806 11.682 51.8175C10.7982 52.7061 10.0974 53.7603 9.62908 54.914C9.15747 56.076 8.92166 57.3221 8.92166 58.5851C8.9385 59.848 9.19115 61.0942 9.67961 62.2561C10.1681 63.418 10.8923 64.4621 11.785 65.3546C13.5873 67.1396 16.0127 68.15 18.556 68.15C21.0994 68.15 23.5248 67.1396 25.327 65.3546C28.5896 62.0927 29.6251 57.6844 30.7284 52.9878L30.7506 52.8933L31.263 50.6764C31.9287 47.7961 29.3477 45.2137 26.467 45.8779L24.2322 46.3932C24.1132 46.4215 23.9943 46.4498 23.8756 46.4781ZM43.6526 54.5604L42.4409 52.6238C40.8708 50.1146 37.2139 50.1206 35.6521 52.635L34.4561 54.5604L34.4123 54.6306C31.8517 58.7299 29.4537 62.5688 29.4537 67.2069C29.4537 69.7497 30.4643 72.1915 32.2665 73.9933C34.0687 75.7952 36.511 76.8055 39.0544 76.8055C41.5977 76.8055 44.04 75.7952 45.8422 73.9933C47.6444 72.1915 48.655 69.7497 48.655 67.2069C48.655 62.5688 46.257 58.7299 43.6964 54.6306L43.6526 54.5604ZM53.5565 46.41L51.348 45.9008C48.4609 45.2351 45.8773 47.8298 46.5555 50.714L47.0718 52.9101C47.0917 52.9936 47.1116 53.077 47.1314 53.1603C48.2366 57.798 49.2688 62.1291 52.4953 65.3714C54.2976 67.1564 56.723 68.1668 59.2663 68.1668C61.8097 68.1668 64.2351 67.1564 66.0373 65.3714C67.8227 63.5696 68.8333 61.1447 68.8333 58.6019C68.8333 56.0591 67.8227 53.6342 66.0373 51.8324C62.7482 48.5607 58.3389 47.529 53.6089 46.4223L53.5565 46.41ZM39.2029 13.201C41.5227 13.201 43.4032 11.3205 43.4032 9.00069C43.4032 6.68093 41.5227 4.80039 39.2029 4.80039C36.8832 4.80039 35.0026 6.68093 35.0026 9.00069C35.0026 11.3205 36.8832 13.201 39.2029 13.201Z" fill="url(#paint0_linear_13846_27)"/>
<path d="M110.328 26.3668C110.328 27.6115 110.099 28.7119 109.642 29.6683C109.185 30.6175 108.531 31.4121 107.68 32.052C106.829 32.6919 105.796 33.1771 104.579 33.5076C103.37 33.8311 102.009 33.9928 100.497 33.9928C98.9855 33.9928 97.6178 33.8311 96.3943 33.5076C95.1778 33.1771 94.1406 32.6919 93.2827 32.052C92.4249 31.4121 91.7639 30.6175 91.2998 29.6683C90.8357 28.7119 90.6036 27.6115 90.6036 26.3668C90.6036 25.1222 90.8357 24.0253 91.2998 23.076C91.7639 22.1197 92.4249 21.3216 93.2827 20.6817C94.1406 20.0418 95.1778 19.5601 96.3943 19.2366C97.6178 18.9062 98.9855 18.7409 100.497 18.7409C102.009 18.7409 103.37 18.9062 104.579 19.2366C105.796 19.5601 106.829 20.0418 107.68 20.6817C108.531 21.3216 109.185 22.1197 109.642 23.076C110.099 24.0253 110.328 25.1222 110.328 26.3668ZM106.372 26.3668C106.372 25.8254 106.284 25.2875 106.109 24.7531C105.94 24.2116 105.634 23.7264 105.191 23.2975C104.755 22.8685 104.157 22.5205 103.398 22.2533C102.638 21.9861 101.672 21.8525 100.497 21.8525C99.7098 21.8525 99.0171 21.9157 98.4194 22.0423C97.8217 22.1619 97.3049 22.3306 96.8689 22.5486C96.433 22.7666 96.0673 23.0232 95.772 23.3186C95.4766 23.6069 95.2411 23.9198 95.0653 24.2573C94.8895 24.5878 94.7629 24.9359 94.6856 25.3015C94.6153 25.6602 94.5801 26.0153 94.5801 26.3668C94.5801 26.7255 94.6153 27.0876 94.6856 27.4533C94.7629 27.8189 94.8895 28.1705 95.0653 28.508C95.2411 28.8385 95.4766 29.1479 95.772 29.4362C96.0673 29.7245 96.433 29.9777 96.8689 30.1956C97.3049 30.4066 97.8217 30.5754 98.4194 30.7019C99.0171 30.8215 99.7098 30.8812 100.497 30.8812C101.672 30.8812 102.638 30.7476 103.398 30.4804C104.157 30.2132 104.755 29.8651 105.191 29.4362C105.634 29.0073 105.94 28.5256 106.109 27.9912C106.284 27.4497 106.372 26.9083 106.372 26.3668Z" fill="white"/>
<path d="M125.495 33.6025V27.5587H115.538V33.6025H111.625V19.1101H115.538V24.3839H125.495V19.1101H129.408V33.6025H125.495Z" fill="white"/>
<path d="M158.332 33.6025V23.4241L152.952 33.6025H149.197L143.818 23.4241V33.6025H139.905V19.1101H145.221L151.075 30.0796L156.929 19.1101H162.224V33.6025H158.332Z" fill="white"/>
<path d="M173.475 27.6853V33.6025H169.573V27.6853L162.548 19.1101H166.936L171.534 24.9429L176.112 19.1101H180.5L173.475 27.6853Z" fill="white"/>
<path d="M100.909 40.3425C102.329 40.3425 103.648 40.4655 104.864 40.7116C106.088 40.9507 107.209 41.2601 108.229 41.6398V45.1838C107.828 44.9588 107.374 44.7408 106.868 44.5299C106.369 44.3189 105.824 44.1326 105.233 43.9709C104.643 43.8091 104.01 43.679 103.335 43.5806C102.66 43.4821 101.949 43.4329 101.204 43.4329C100.276 43.4329 99.4672 43.4997 98.7781 43.6333C98.0889 43.7669 97.4983 43.9462 97.0061 44.1713C96.5138 44.3963 96.1095 44.66 95.7931 44.9623C95.4766 45.2577 95.227 45.5741 95.0442 45.9116C94.8614 46.2491 94.7348 46.5937 94.6645 46.9453C94.5942 47.2969 94.559 47.6379 94.559 47.9684C94.559 48.2567 94.5871 48.5696 94.6434 48.9071C94.7067 49.2447 94.8192 49.5822 94.9809 49.9197C95.1497 50.2572 95.3817 50.5807 95.6771 50.8901C95.9724 51.1995 96.3556 51.4737 96.8267 51.7128C97.3049 51.9519 97.878 52.1453 98.546 52.2929C99.214 52.4336 100.009 52.5039 100.93 52.5039C101.394 52.5039 101.798 52.4898 102.143 52.4617C102.487 52.4336 102.8 52.3949 103.081 52.3457C103.37 52.2965 103.637 52.2367 103.883 52.1664C104.136 52.096 104.396 52.0222 104.664 51.9449V50.194H100.276V47.0191H108.577V54.4236C108.056 54.5994 107.473 54.7611 106.826 54.9087C106.186 55.0494 105.522 55.1689 104.832 55.2674C104.15 55.3728 103.465 55.4537 102.776 55.51C102.086 55.5662 101.436 55.5943 100.824 55.5943C99.875 55.5943 98.9644 55.5311 98.0925 55.4045C97.2205 55.2779 96.4048 55.0845 95.6454 54.8244C94.893 54.5572 94.2039 54.2196 93.5781 53.8118C92.9593 53.404 92.4284 52.9188 91.9854 52.3562C91.5494 51.7937 91.2084 51.1503 90.9623 50.426C90.7232 49.6947 90.6036 48.8755 90.6036 47.9684C90.6036 47.0683 90.7302 46.2527 90.9834 45.5214C91.2365 44.7901 91.5881 44.1431 92.0381 43.5806C92.4952 43.018 93.0401 42.5329 93.673 42.125C94.3129 41.7172 95.0125 41.3832 95.772 41.123C96.5384 40.8558 97.3541 40.6589 98.219 40.5323C99.091 40.4058 99.9875 40.3425 100.909 40.3425Z" fill="white"/>
<path d="M129.04 50.3205C129.04 51.0448 128.861 51.7269 128.502 52.3668C128.144 53.0067 127.606 53.5657 126.888 54.0438C126.171 54.522 125.275 54.9017 124.199 55.183C123.13 55.4572 121.878 55.5943 120.444 55.5943C119.009 55.5943 117.751 55.4572 116.668 55.183C115.592 54.9017 114.695 54.522 113.978 54.0438C113.261 53.5657 112.723 53.0067 112.364 52.3668C112.006 51.7269 111.826 51.0448 111.826 50.3205V40.7116H115.729V48.9177C115.729 49.4029 115.789 49.8635 115.908 50.2994C116.035 50.7284 116.267 51.1046 116.604 51.428C116.949 51.7515 117.427 52.0081 118.039 52.198C118.658 52.3879 119.459 52.4828 120.444 52.4828C121.421 52.4828 122.216 52.3879 122.828 52.198C123.439 52.0081 123.914 51.7515 124.251 51.428C124.596 51.1046 124.828 50.7284 124.948 50.2994C125.067 49.8635 125.127 49.4029 125.127 48.9177V40.7116H129.04V50.3205Z" fill="white"/>
<path d="M132.606 55.2041V40.7116H136.519V55.2041H132.606Z" fill="white"/>
<path d="M157.953 47.9473C157.953 48.8755 157.851 49.7017 157.647 50.426C157.443 51.1432 157.155 51.7691 156.782 52.3035C156.416 52.8379 155.973 53.2914 155.453 53.6641C154.94 54.0368 154.367 54.3357 153.734 54.5607C153.101 54.7857 152.419 54.9509 151.688 55.0564C150.956 55.1549 150.193 55.2041 149.399 55.2041H140.201V40.7116H149.378C150.172 40.7116 150.935 40.7644 151.666 40.8698C152.398 40.9683 153.08 41.13 153.713 41.355C154.353 41.5801 154.933 41.8789 155.453 42.2516C155.973 42.6172 156.416 43.0708 156.782 43.6122C157.155 44.1466 157.443 44.7725 157.647 45.4897C157.851 46.2069 157.953 47.0261 157.953 47.9473ZM154.008 47.9473C154.008 47.2512 153.917 46.6464 153.734 46.1331C153.558 45.6198 153.27 45.1979 152.869 44.8674C152.475 44.5299 151.958 44.2802 151.318 44.1185C150.678 43.9498 149.898 43.8654 148.977 43.8654H144.114V52.0503H148.977C149.898 52.0503 150.678 51.9695 151.318 51.8077C151.958 51.639 152.475 51.3858 152.869 51.0483C153.27 50.7038 153.558 50.2748 153.734 49.7615C153.917 49.2482 154.008 48.6435 154.008 47.9473Z" fill="white"/>
<path d="M161.528 55.2041V40.7116H176.2V43.8021H165.547V46.1964H175.652V49.2869H165.547V52.1136H176.348V55.2041H161.528Z" fill="white"/>
<defs>
<linearGradient id="paint0_linear_13846_27" x1="10.1882" y1="72.505" x2="68.9422" y2="7.50032" gradientUnits="userSpaceOnUse">
<stop stop-color="#E61AA2"/>
<stop offset="0.359375" stop-color="#FF3377"/>
<stop offset="0.682292" stop-color="#FF7066"/>
<stop offset="1" stop-color="#FF9980"/>
</linearGradient>
</defs>
</svg>
