<svg width="161" height="69" viewBox="0 0 161 69" fill="none" xmlns="http://www.w3.org/2000/svg">
<path fill-rule="evenodd" clip-rule="evenodd" d="M48.9788 38.065C52.6619 40.3702 56.0904 42.5107 60.2376 42.5107C62.4984 42.5107 64.6693 41.6126 66.2713 40.011C67.8733 38.4093 68.7716 36.2389 68.7716 33.9786C68.7716 31.7184 67.8733 29.5479 66.2713 27.9463C64.6693 26.3447 62.4984 25.4465 60.2376 25.4465C56.1721 25.4465 52.7972 27.5323 49.1961 29.7579C49.1238 29.8026 49.0513 29.8474 48.9788 29.8922L47.869 30.5838C45.3563 32.1496 45.3563 35.8076 47.869 37.3734L48.9788 38.065ZM47.9436 26.6519C52.0536 25.6767 55.877 24.7696 58.7448 21.9096C58.7487 21.9057 58.7554 21.9084 58.7554 21.9139C58.7554 21.9194 58.7621 21.9222 58.766 21.9182C60.3464 20.3177 61.2407 18.1518 61.2258 15.8966C61.2258 13.6364 60.3125 11.4659 58.7105 9.87925C57.1085 8.29258 54.9526 7.39447 52.6918 7.39447C50.4311 7.39447 48.2751 8.29258 46.6731 9.87925C43.7731 12.7787 42.8526 16.6972 41.872 20.8719L41.8522 20.956L41.5601 22.2309C40.8998 25.1124 43.4857 27.6899 46.3651 27.0203L47.6613 26.7189C47.7555 26.6965 47.8496 26.6742 47.9436 26.6519ZM30.6533 19.7735L31.3544 20.8914C32.9251 23.396 36.5764 23.39 38.1388 20.8803L38.8279 19.7735L38.8669 19.7111C41.143 16.0673 43.2745 12.6549 43.2745 8.53208C43.2745 6.27183 42.3762 4.10139 40.7742 2.49975C39.1723 0.898115 37.0013 0 34.7406 0C32.4798 0 30.3089 0.898115 28.7069 2.49975C27.105 4.10139 26.2066 6.27183 26.2066 8.53208C26.2066 12.6262 28.3239 16.0294 30.5914 19.674L30.6533 19.7735ZM21.5953 26.7338L22.8857 27.0314C25.7671 27.6957 28.3484 25.1119 27.6813 22.2312L27.3894 20.9709C27.3656 20.8712 27.3419 20.7717 27.3183 20.6723C26.3433 16.5787 25.4334 12.7585 22.5685 9.89421C20.9665 8.30755 18.8106 7.40944 16.5498 7.40944C14.2891 7.40944 12.1331 8.30755 10.5311 9.89421C8.94412 11.4809 8.03084 13.6364 8.03084 15.8966C8.03084 18.1569 8.91418 20.3123 10.5012 21.914C13.4161 24.8134 17.3355 25.7336 21.5111 26.7141L21.5953 26.7338ZM21.4026 37.3734C23.9153 35.8076 23.9153 32.1496 21.4026 30.5838L20.3106 29.9033C20.2987 29.8959 20.2878 29.8872 20.2779 29.8774C20.2679 29.8673 20.2567 29.8585 20.2447 29.851C20.1983 29.8224 20.1519 29.7937 20.1056 29.7651C16.4819 27.5261 13.0925 25.4318 9.03395 25.4465C6.7732 25.4465 4.60228 26.3447 3.0003 27.9463C1.39831 29.5479 0.5 31.7184 0.5 33.9786C0.5 36.2389 1.39831 38.4093 3.0003 40.011C4.60228 41.6126 6.7732 42.5107 9.03395 42.5107C13.0995 42.5107 16.4744 40.4249 20.0755 38.1993C20.1478 38.1546 20.2202 38.1098 20.2928 38.065L21.4026 37.3734ZM21.2783 41.3139C17.198 42.2851 13.3769 43.1946 10.518 46.0414C10.5077 46.0517 10.4925 46.0554 10.4787 46.0508C10.465 46.0462 10.4498 46.0498 10.4395 46.06C9.65393 46.8499 9.031 47.7869 8.61474 48.8125C8.19553 49.8453 7.98592 50.953 7.98592 52.0756C8.00089 53.1983 8.22547 54.3059 8.65965 55.3388C9.09383 56.3716 9.73762 57.2996 10.5311 58.093C12.1331 59.6796 14.2891 60.5778 16.5498 60.5778C18.8106 60.5778 20.9665 59.6796 22.5685 58.093C25.4685 55.1935 26.389 51.275 27.3697 47.1003L27.3894 47.0162L27.6847 45.7386C28.3504 42.8583 25.7694 40.276 22.8888 40.9402L21.5953 41.2384C21.4895 41.2636 21.3838 41.2887 21.2783 41.3139ZM38.8578 48.4981L38.1589 47.3811C36.5889 44.8719 32.9319 44.8779 31.3701 47.3923L30.6832 48.4981L30.6443 48.5605C28.3681 52.2043 26.2366 55.6167 26.2366 59.7395C26.2366 61.9998 27.1349 64.1702 28.7369 65.7718C30.3389 67.3735 32.5098 68.2716 34.7705 68.2716C37.0313 68.2716 39.2022 67.3735 40.8042 65.7718C42.4062 64.1702 43.3045 61.9998 43.3045 59.7395C43.3045 55.6167 41.1729 52.2043 38.8968 48.5605L38.8578 48.4981ZM47.6613 41.2533L46.3941 40.9612C43.5071 40.2955 40.9235 42.8902 41.6016 45.7744L41.8971 47.0312C41.9148 47.1054 41.9325 47.1796 41.9501 47.2536C42.9326 51.376 43.8501 55.2259 46.7181 58.1079C48.32 59.6946 50.476 60.5927 52.7367 60.5927C54.9975 60.5927 57.1534 59.6946 58.7554 58.1079C60.3424 56.5063 61.2407 54.3508 61.2407 52.0906C61.2407 49.8303 60.3424 47.6749 58.7554 46.0732C55.8317 43.1651 51.9123 42.248 47.7079 41.2642L47.6613 41.2533ZM34.9025 11.7343C36.9645 11.7343 38.6361 10.0627 38.6361 8.00066C38.6361 5.93865 36.9645 4.26706 34.9025 4.26706C32.8405 4.26706 31.1689 5.93865 31.1689 8.00066C31.1689 10.0627 32.8405 11.7343 34.9025 11.7343Z" fill="url(#paint0_linear_13567_88379)"/>
<path d="M98.1246 23.4372C98.1246 24.5436 97.9215 25.5218 97.5152 26.3718C97.1089 27.2156 96.5276 27.9219 95.7713 28.4907C95.015 29.0595 94.0962 29.4908 93.0149 29.7846C91.9398 30.0721 90.7303 30.2159 89.3865 30.2159C88.0426 30.2159 86.8269 30.0721 85.7393 29.7846C84.658 29.4908 83.7361 29.0595 82.9735 28.4907C82.211 27.9219 81.6234 27.2156 81.2109 26.3718C80.7984 25.5218 80.5921 24.5436 80.5921 23.4372C80.5921 22.3309 80.7984 21.3558 81.2109 20.512C81.6234 19.662 82.211 18.9525 82.9735 18.3838C83.7361 17.815 84.658 17.3868 85.7393 17.0993C86.8269 16.8055 88.0426 16.6586 89.3865 16.6586C90.7303 16.6586 91.9398 16.8055 93.0149 17.0993C94.0962 17.3868 95.015 17.815 95.7713 18.3838C96.5276 18.9525 97.1089 19.662 97.5152 20.512C97.9215 21.3558 98.1246 22.3309 98.1246 23.4372ZM94.6087 23.4372C94.6087 22.956 94.5306 22.4778 94.3743 22.0028C94.2243 21.5215 93.9524 21.0902 93.5587 20.7089C93.1711 20.3276 92.6398 20.0182 91.9648 19.7807C91.2897 19.5432 90.4303 19.4245 89.3865 19.4245C88.6864 19.4245 88.0708 19.4807 87.5395 19.5932C87.0082 19.6995 86.5488 19.8495 86.1612 20.0432C85.7737 20.237 85.4487 20.4652 85.1862 20.7277C84.9237 20.9839 84.7143 21.2621 84.558 21.5621C84.4017 21.8559 84.2892 22.1653 84.2205 22.4903C84.158 22.8091 84.1267 23.1247 84.1267 23.4372C84.1267 23.756 84.158 24.0779 84.2205 24.4029C84.2892 24.728 84.4017 25.0405 84.558 25.3405C84.7143 25.6343 84.9237 25.9093 85.1862 26.1656C85.4487 26.4218 85.7737 26.6469 86.1612 26.8406C86.5488 27.0281 87.0082 27.1781 87.5395 27.2906C88.0708 27.3969 88.6864 27.45 89.3865 27.45C90.4303 27.45 91.2897 27.3313 91.9648 27.0938C92.6398 26.8562 93.1711 26.5468 93.5587 26.1656C93.9524 25.7843 94.2243 25.3561 94.3743 24.8811C94.5306 24.3998 94.6087 23.9185 94.6087 23.4372Z" fill="#25272D"/>
<path d="M111.606 29.869V24.4967H102.756V29.869H99.2774V16.9868H102.756V21.6746H111.606V16.9868H115.085V29.869H111.606Z" fill="#25272D"/>
<path d="M140.795 29.869V20.8214L136.013 29.869H132.675L127.894 20.8214V29.869H124.416V16.9868H129.141L134.344 26.7375L139.548 16.9868H144.254V29.869H140.795Z" fill="#25272D"/>
<path d="M154.256 24.6092V29.869H150.787V24.6092L144.542 16.9868H148.443L152.531 22.1715L156.6 16.9868H160.5L154.256 24.6092Z" fill="#25272D"/>
<path d="M89.7521 35.86C91.0147 35.86 92.1867 35.9694 93.268 36.1882C94.3556 36.4007 95.3525 36.6757 96.2588 37.0132V40.1635C95.9026 39.9634 95.4994 39.7697 95.0494 39.5822C94.6056 39.3946 94.1212 39.229 93.5962 39.0852C93.0711 38.9415 92.5086 38.8259 91.9085 38.7383C91.3085 38.6508 90.6772 38.6071 90.0146 38.6071C89.1896 38.6071 88.4708 38.6665 87.8582 38.7852C87.2457 38.904 86.7207 39.0634 86.2831 39.2634C85.8456 39.4634 85.4862 39.6978 85.2049 39.9666C84.9237 40.2291 84.7018 40.5104 84.5392 40.8104C84.3767 41.1104 84.2642 41.4167 84.2017 41.7292C84.1392 42.0417 84.108 42.3449 84.108 42.6386C84.108 42.8949 84.133 43.173 84.183 43.4731C84.2392 43.7731 84.3392 44.0731 84.483 44.3731C84.633 44.6732 84.8393 44.9607 85.1018 45.2357C85.3643 45.5107 85.705 45.7545 86.1237 45.967C86.5488 46.1795 87.0582 46.3514 87.652 46.4827C88.2458 46.6077 88.9521 46.6702 89.7709 46.6702C90.1834 46.6702 90.5428 46.6577 90.8491 46.6327C91.1554 46.6077 91.4335 46.5733 91.6835 46.5295C91.9398 46.4858 92.1773 46.4327 92.3961 46.3701C92.6211 46.3076 92.8523 46.242 93.0899 46.1733V44.6169H89.1896V41.7948H96.5682V48.3765C96.1057 48.5328 95.5869 48.6766 95.0119 48.8078C94.4431 48.9328 93.8524 49.0391 93.2399 49.1266C92.6336 49.2204 92.0242 49.2922 91.4116 49.3422C90.7991 49.3922 90.2209 49.4172 89.6771 49.4172C88.8333 49.4172 88.0239 49.361 87.2488 49.2485C86.4738 49.136 85.7487 48.9641 85.0737 48.7328C84.4049 48.4953 83.7923 48.1953 83.236 47.8328C82.686 47.4702 82.2141 47.0389 81.8203 46.5389C81.4328 46.0389 81.1296 45.467 80.9109 44.8232C80.6983 44.1731 80.5921 43.4449 80.5921 42.6386C80.5921 41.8386 80.7046 41.1135 80.9296 40.4635C81.1546 39.8134 81.4672 39.2384 81.8672 38.7383C82.2735 38.2383 82.7579 37.807 83.3204 37.4445C83.8892 37.082 84.5111 36.7851 85.1862 36.5538C85.8675 36.3163 86.5925 36.1413 87.3613 36.0288C88.1364 35.9163 88.9333 35.86 89.7521 35.86Z" fill="#25272D"/>
<path d="M114.758 44.7294C114.758 45.3732 114.598 45.9795 114.28 46.5483C113.961 47.1171 113.483 47.614 112.845 48.039C112.208 48.4641 111.411 48.8016 110.454 49.0516C109.504 49.2954 108.392 49.4172 107.117 49.4172C105.842 49.4172 104.723 49.2954 103.76 49.0516C102.804 48.8016 102.007 48.4641 101.369 48.039C100.732 47.614 100.254 47.1171 99.9349 46.5483C99.6161 45.9795 99.4567 45.3732 99.4567 44.7294V36.1882H102.926V43.4824C102.926 43.9137 102.979 44.3231 103.085 44.7107C103.198 45.0919 103.404 45.4263 103.704 45.7139C104.01 46.0014 104.435 46.2295 104.979 46.3983C105.529 46.567 106.242 46.6514 107.117 46.6514C107.985 46.6514 108.692 46.567 109.236 46.3983C109.779 46.2295 110.201 46.0014 110.501 45.7139C110.808 45.4263 111.014 45.0919 111.12 44.7107C111.226 44.3231 111.279 43.9137 111.279 43.4824V36.1882H114.758V44.7294Z" fill="#25272D"/>
<path d="M117.928 49.0703V36.1882H121.406V49.0703H117.928Z" fill="#25272D"/>
<path d="M140.458 42.6199C140.458 43.4449 140.367 44.1794 140.186 44.8232C140.005 45.4607 139.749 46.017 139.417 46.492C139.092 46.9671 138.699 47.3702 138.236 47.7015C137.78 48.0328 137.27 48.2984 136.708 48.4984C136.145 48.6984 135.539 48.8453 134.889 48.9391C134.239 49.0266 133.561 49.0703 132.854 49.0703H124.679V36.1882H132.836C133.542 36.1882 134.22 36.235 134.87 36.3288C135.52 36.4163 136.126 36.5601 136.689 36.7601C137.258 36.9601 137.773 37.2257 138.236 37.557C138.699 37.882 139.092 38.2852 139.417 38.7665C139.749 39.2415 140.005 39.7978 140.186 40.4353C140.367 41.0729 140.458 41.8011 140.458 42.6199ZM136.952 42.6199C136.952 42.0011 136.87 41.4635 136.708 41.0073C136.552 40.551 136.295 40.176 135.939 39.8822C135.589 39.5822 135.13 39.3603 134.561 39.2165C133.992 39.0665 133.298 38.9915 132.479 38.9915H128.157V46.267H132.479C133.298 46.267 133.992 46.1951 134.561 46.0514C135.13 45.9014 135.589 45.6763 135.939 45.3763C136.295 45.0701 136.552 44.6888 136.708 44.2325C136.87 43.7762 136.952 43.2387 136.952 42.6199Z" fill="#25272D"/>
<path d="M143.636 49.0703V36.1882H156.678V38.9352H147.209V41.0635H156.19V43.8106H147.209V46.3233H156.809V49.0703H143.636Z" fill="#25272D"/>
<defs>
<linearGradient id="paint0_linear_13567_88379" x1="9.11173" y1="64.4489" x2="61.3375" y2="6.66695" gradientUnits="userSpaceOnUse">
<stop stop-color="#E61AA2"/>
<stop offset="0.359375" stop-color="#FF3377"/>
<stop offset="0.682292" stop-color="#FF7066"/>
<stop offset="1" stop-color="#FF9980"/>
</linearGradient>
</defs>
</svg>
