<svg width="26" height="25" viewBox="0 0 26 25" fill="none" xmlns="http://www.w3.org/2000/svg">
<g clip-path="url(#clip0_303_103)">
<path d="M13 5.46875C14.5706 5.46875 15.8438 4.24453 15.8438 2.73438C15.8438 1.22422 14.5706 0 13 0C11.4294 0 10.1562 1.22422 10.1562 2.73438C10.1562 4.24453 11.4294 5.46875 13 5.46875Z" fill="currentcolor"/>
<path d="M22.1914 6.25H3.80859C3.44496 6.25 3.09621 6.3889 2.83908 6.63614C2.58195 6.88338 2.4375 7.21871 2.4375 7.56836C2.4375 7.91801 2.58195 8.25334 2.83908 8.50058C3.09621 8.74782 3.44496 8.88672 3.80859 8.88672H8.98219C9.33309 8.88672 9.74391 9.0376 9.97648 9.61914C10.2482 10.2944 10.1151 11.5986 9.94754 12.6089L9.72816 13.8027C9.72857 13.8058 9.72824 13.809 9.72718 13.812C9.72612 13.8149 9.72438 13.8176 9.72207 13.8198L7.96504 23.4297C7.90132 23.7785 7.98389 24.1374 8.19469 24.4279C8.40548 24.7183 8.72734 24.9167 9.08984 24.9795C9.26906 25.01 9.45279 25.0059 9.63037 24.9676C9.80794 24.9292 9.97582 24.8573 10.1243 24.756C10.2727 24.6548 10.3987 24.5262 10.4951 24.3777C10.5914 24.2292 10.6561 24.0638 10.6854 23.8911L11.8996 17.2114C11.8996 17.2114 12.2891 15.625 13 15.625C13.7226 15.625 14.104 17.2114 14.104 17.2114L15.3182 23.897C15.3475 24.0712 15.4127 24.2381 15.5098 24.3879C15.6069 24.5377 15.7341 24.6674 15.8839 24.7694C16.0336 24.8715 16.2031 24.9438 16.3822 24.9823C16.5614 25.0208 16.7467 25.0245 16.9274 24.9934C17.1081 24.9623 17.2806 24.8969 17.4347 24.8011C17.5889 24.7053 17.7216 24.5809 17.8253 24.4352C17.929 24.2895 18.0014 24.1254 18.0385 23.9526C18.0755 23.7797 18.0764 23.6014 18.0411 23.4282L16.2835 13.8184C16.2839 13.8153 16.2836 13.8122 16.2826 13.8092C16.2817 13.8063 16.2801 13.8036 16.2779 13.8013L16.058 12.6074C15.8905 11.5972 15.7574 10.293 16.0291 9.61768C16.2607 9.0376 16.6847 8.88525 17.0082 8.88525H22.1914C22.555 8.88525 22.9038 8.74636 23.1609 8.49912C23.418 8.25188 23.5625 7.91655 23.5625 7.56689C23.5625 7.21724 23.418 6.88191 23.1609 6.63467C22.9038 6.38743 22.555 6.24854 22.1914 6.24854V6.25Z" fill="currentcolor"/>
</g>
<defs>
<clipPath id="clip0_303_103">
<rect width="26" height="25" fill="white"/>
</clipPath>
</defs>
</svg>
