<svg width="25" height="25" viewBox="0 0 25 25" fill="none" xmlns="http://www.w3.org/2000/svg">
<path fill-rule="evenodd" clip-rule="evenodd" d="M6.24998 2.08329C6.24998 1.508 6.71635 1.04163 7.29165 1.04163C7.86694 1.04163 8.33331 1.508 8.33331 2.08329V3.12496H16.6666V2.08329C16.6666 1.508 17.133 1.04163 17.7083 1.04163C18.2836 1.04163 18.75 1.508 18.75 2.08329V3.12496H19.7916C21.5176 3.12496 22.9166 4.52407 22.9166 6.24996V20.8333C22.9166 22.5592 21.5176 23.9583 19.7916 23.9583H5.20831C3.48243 23.9583 2.08331 22.5592 2.08331 20.8333V6.24996C2.08331 4.52407 3.48243 3.12496 5.20831 3.12496H6.24998V2.08329ZM16.6666 5.20829V6.24996C16.6666 6.82525 17.133 7.29163 17.7083 7.29163C18.2836 7.29163 18.75 6.82525 18.75 6.24996V5.20829H19.7916C20.367 5.20829 20.8333 5.67467 20.8333 6.24996V9.37496H4.16665V6.24996C4.16665 5.67467 4.63302 5.20829 5.20831 5.20829H6.24998V6.24996C6.24998 6.82525 6.71635 7.29163 7.29165 7.29163C7.86694 7.29163 8.33331 6.82525 8.33331 6.24996V5.20829H16.6666ZM4.16665 11.4583V20.8333C4.16665 21.4086 4.63302 21.875 5.20831 21.875H19.7916C20.367 21.875 20.8333 21.4086 20.8333 20.8333V11.4583H4.16665Z" fill="currentcolor"/>
</svg>
