<svg width="20" height="20" viewBox="0 0 20 20" fill="none" xmlns="http://www.w3.org/2000/svg">
    <path d="M17.5 4.98356C14.725 4.70856 11.9333 4.56689 9.15 4.56689C7.5 4.56689 5.85 4.65023 4.2 4.81689L2.5 4.98356M7.08333 4.1415L7.26667 3.04984C7.4 2.25817 7.5 1.6665 8.90833 1.6665H11.0917C12.5 1.6665 12.6083 2.2915 12.7333 3.05817L12.9167 4.1415M15.7087 7.61703L15.167 16.0087C15.0753 17.317 15.0003 18.3337 12.6753 18.3337H7.32533C5.00033 18.3337 4.92533 17.317 4.83366 16.0087L4.29199 7.61703M8.6084 13.7498H11.3834M7.91667 10.4165H12.0833" stroke="currentColor" stroke-width="1.3" stroke-linecap="round" stroke-linejoin="round"/>
</svg>
