<svg width="20" height="12" viewBox="0 0 20 12" fill="none" xmlns="http://www.w3.org/2000/svg">
<path d="M19.4318 4.44612C19.2493 4.44612 19.1014 4.62096 19.1014 4.83611C19.1014 5.43301 19.1014 6.56756 19.1014 7.1641C19.1014 7.37926 19.2493 7.55373 19.4322 7.55373C19.6146 7.55373 19.7619 7.37922 19.7619 7.1641C19.7619 6.56792 19.7619 5.43334 19.7619 4.83575C19.7619 4.62096 19.6142 4.44612 19.4318 4.44612Z" fill="currentcolor"/>
<path d="M0.892731 4.44612C0.71027 4.44612 0.561905 4.62096 0.561905 4.83611C0.561905 5.4337 0.561905 6.56652 0.562289 7.16342C0.562289 7.37857 0.71027 7.55305 0.892731 7.55377C1.07523 7.55377 1.22283 7.37926 1.22283 7.16414C1.22283 6.5676 1.22283 5.43337 1.22321 4.83579C1.22317 4.62096 1.07523 4.44612 0.892731 4.44612Z" fill="currentcolor"/>
<path d="M4.96091 0.91687C4.35217 0.91687 3.85831 1.44041 3.85831 2.08583C3.85831 4.04241 3.85869 7.95826 3.85907 9.91412C3.85907 10.5595 4.35217 11.083 4.96095 11.083C5.56972 11.083 6.06354 10.5592 6.06354 9.91412C6.06354 9.14681 6.06354 8.07665 6.06354 6.94275C6.69913 6.94275 12.388 6.94275 14.0836 6.94275C14.0836 8.07701 14.0836 9.14681 14.0836 9.91448C14.0836 10.5595 14.5774 11.083 15.1863 11.083C15.795 11.083 16.2881 10.5592 16.2881 9.91412C16.2881 7.95754 16.2881 4.04169 16.2881 2.08583C16.2881 1.44009 15.795 0.91687 15.1863 0.91687C14.5775 0.91687 14.0836 1.43973 14.0836 2.08583C14.0836 2.85311 14.0836 3.92294 14.0836 5.05713C12.3873 5.05713 6.69913 5.05713 6.06354 5.05713C6.06354 3.92294 6.06354 2.85307 6.06354 2.08547C6.06354 1.43976 5.57007 0.91687 4.96091 0.91687Z" fill="currentcolor"/>
<path d="M17.7484 2.47823C17.7123 2.47823 17.6767 2.47823 17.6404 2.47823C17.1818 2.47823 16.8095 2.82624 16.8095 3.25684C16.8095 4.61201 16.8095 7.38784 16.8095 8.74298C16.8095 9.17325 17.1817 9.52232 17.6407 9.52232C17.6767 9.52232 17.7131 9.52232 17.7487 9.52232C18.2076 9.52232 18.5799 9.1743 18.5799 8.74367C18.5799 7.38885 18.5799 4.6127 18.5796 3.25749C18.58 2.82693 18.2073 2.47823 17.7484 2.47823Z" fill="currentcolor"/>
<path d="M2.56297 2.47823C2.52699 2.47823 2.49063 2.47823 2.45465 2.47823C1.9957 2.47823 1.62375 2.82624 1.62375 3.25684C1.62375 4.61201 1.62375 7.38784 1.62375 8.74298C1.62375 9.17361 1.9957 9.52232 2.45465 9.52232C2.49063 9.52232 2.52699 9.52232 2.56259 9.52232C3.02154 9.52232 3.39349 9.1743 3.39349 8.74367C3.39349 7.38885 3.39349 4.6127 3.39349 3.25749C3.39388 2.82693 3.02193 2.47823 2.56297 2.47823Z" fill="currentcolor"/>
</svg>
