<svg width="26" height="25" viewBox="0 0 26 25" fill="none" xmlns="http://www.w3.org/2000/svg">
<g clip-path="url(#clip0_125_118)">
<path fill-rule="evenodd" clip-rule="evenodd" d="M19.5625 20.5H6.43814C5.73175 20.5 5.21012 19.803 5.47655 19.162C6.71273 16.198 9.6169 14.5 12.9998 14.5C16.3838 14.5 19.2879 16.198 20.5241 19.162C20.7905 19.803 20.2689 20.5 19.5625 20.5ZM8.91664 8.49998C8.91664 6.29398 10.749 4.49998 12.9998 4.49998C15.2517 4.49998 17.083 6.29398 17.083 8.49998C17.083 10.706 15.2517 12.5 12.9998 12.5C10.749 12.5 8.91664 10.706 8.91664 8.49998ZM22.9556 20.136C22.2135 16.777 19.8922 14.298 16.837 13.173C18.456 11.896 19.4002 9.83093 19.0531 7.56993C18.6509 4.94693 16.4236 2.84798 13.7348 2.54198C10.0232 2.11898 6.87504 4.94898 6.87504 8.49998C6.87504 10.39 7.76926 12.074 9.16367 13.173C6.1074 14.298 3.78713 16.777 3.04399 20.136C2.7745 21.357 3.77897 22.5 5.05394 22.5H20.9457C22.2217 22.5 23.2262 21.357 22.9556 20.136Z" fill="currentcolor"/>
</g>
<defs>
<clipPath id="clip0_125_118">
<rect width="20" height="20" fill="white" transform="translate(2.99997 2.5)"/>
</clipPath>
</defs>
</svg>
