<svg width="18" height="19" viewBox="0 0 18 19" fill="none" xmlns="http://www.w3.org/2000/svg">
<g clip-path="url(#clip0_101_1056)">
<path fill-rule="evenodd" clip-rule="evenodd" d="M15.6357 1.90901C14.757 1.03033 13.3324 1.03033 12.4537 1.90901L1.83555 12.5272C1.52145 12.8413 1.30735 13.2414 1.22023 13.6769L0.779932 15.8785C0.570016 16.928 1.49539 17.8534 2.54497 17.6435L4.74648 17.2032C5.18206 17.1161 5.58211 16.902 5.89621 16.5879L16.5144 5.96967C17.3931 5.09099 17.3931 3.66637 16.5144 2.78769L15.6357 1.90901ZM13.5144 2.96967C13.8073 2.67678 14.2821 2.67678 14.5751 2.96967L15.4537 3.84835C15.7467 4.14124 15.7467 4.61611 15.4537 4.90901L13.45 6.9127L11.5107 4.97336L13.5144 2.96967ZM10.45 6.03402L2.89621 13.5879C2.79151 13.6926 2.72014 13.8259 2.6911 13.9711L2.2508 16.1726L4.45231 15.7323C4.5975 15.7032 4.73085 15.6319 4.83555 15.5272L12.3894 7.97336L10.45 6.03402Z" fill="currentcolor"/>
</g>
<defs>
<clipPath id="clip0_101_1056">
<rect width="18" height="18" fill="white" transform="translate(-3.05176e-05 0.5)"/>
</clipPath>
</defs>
</svg>
