<svg width="19" height="19" viewBox="0 0 19 19" fill="none" xmlns="http://www.w3.org/2000/svg">
<path d="M15.335 7.40749C15.3725 7.11499 15.395 6.80749 15.395 6.49249C15.395 4.42249 13.73 2.75 11.675 2.75C10.46 2.75 9.37999 3.33499 8.69749 4.24249C8.02249 3.33499 6.94249 2.75 5.71999 2.75C3.66499 2.75 2 4.42249 2 6.49249C2 11.1875 6.3425 13.9475 8.285 14.615C8.51 14.6975 8.88501 14.6975 9.11001 14.615C9.14751 14.6 9.185 14.5925 9.2225 14.57M15.335 7.40749C14.99 7.25749 14.615 7.175 14.2175 7.175C13.3025 7.175 12.4925 7.61749 11.99 8.29249C11.48 7.61749 10.67 7.175 9.755 7.175C8.2175 7.175 6.9725 8.42749 6.9725 9.97999C6.9725 11.99 8.0375 13.5275 9.2225 14.57M15.335 7.40749C16.3175 7.84249 16.9999 8.82492 16.9999 9.97992C16.9999 13.4899 13.7524 15.5599 12.2974 16.0549C12.1249 16.1149 11.8474 16.1149 11.6749 16.0549C11.0524 15.8449 10.1 15.3425 9.2225 14.57" stroke="url(#paint0_linear_10810_6692)" stroke-width="1.2" stroke-linecap="round" stroke-linejoin="round"/>
<defs>
<linearGradient id="paint0_linear_10810_6692" x1="9.49995" y1="2.75" x2="9.49995" y2="16.0999" gradientUnits="userSpaceOnUse">
<stop stop-color="#EDD1FA"/>
<stop offset="1" stop-color="#C6BCFA"/>
</linearGradient>
</defs>
</svg>
