<svg width="14" height="15" viewBox="0 0 14 15" fill="none" xmlns="http://www.w3.org/2000/svg">
<path d="M7.00008 3.74335H12.8334M1.16675 10.4517H7.00008M12.8334 9.25002C12.8334 11.5075 11.0076 13.3334 8.75008 13.3334L9.36257 12.3125M1.16675 5.75002C1.16675 3.49252 2.99258 1.66669 5.25008 1.66669L4.63759 2.68752M8.29508 1.66669H11.5384C12.5767 1.66669 12.8334 1.92335 12.8334 2.95002V5.34752C12.8334 6.37419 12.5767 6.63085 11.5384 6.63085H8.29508C7.25675 6.63085 7.00008 6.37419 7.00008 5.34752V2.95002C7.00008 1.92335 7.25675 1.66669 8.29508 1.66669ZM2.46175 8.37502H5.70508C6.74341 8.37502 7.00008 8.63169 7.00008 9.65835V12.0559C7.00008 13.0825 6.74341 13.3392 5.70508 13.3392H2.46175C1.42342 13.3392 1.16675 13.0825 1.16675 12.0559V9.65835C1.16675 8.63169 1.42342 8.37502 2.46175 8.37502Z" stroke="currentcolor" stroke-width="1.5" stroke-linecap="round" stroke-linejoin="round"/>
</svg>
