<svg width="19" height="18" viewBox="0 0 19 18" fill="none" xmlns="http://www.w3.org/2000/svg">
<path d="M7.69258 3.885C4.98508 4.4625 2.95258 6.87 2.95258 9.75V12.75H16.0401V9.75C16.0401 6.87 14.0151 4.47 11.3076 3.885M7.69258 3.885C8.09758 3.795 8.51758 3.75 8.95258 3.75H10.0401C10.4751 3.75 10.9026 3.795 11.3076 3.885M7.69258 3.885C7.64758 3.72 7.62506 3.555 7.62506 3.375C7.62506 2.34 8.46506 1.5 9.50006 1.5C10.5351 1.5 11.3751 2.34 11.3751 3.375C11.3751 3.555 11.3526 3.72 11.3076 3.885M11.7502 8.25H7.25024M14.7275 16.5H4.22754C1.97754 16.5 1.97754 15.4875 1.97754 14.25V13.5C1.97754 13.0875 2.31504 12.75 2.72754 12.75H16.2275C16.64 12.75 16.9775 13.0875 16.9775 13.5V14.25C16.9775 15.4875 16.9775 16.5 14.7275 16.5Z" stroke="#E2E4E9" stroke-width="1.5" stroke-linecap="round" stroke-linejoin="round"/>
</svg>
