<svg xmlns="http://www.w3.org/2000/svg" width="16" height="16" viewBox="0 0 16 16" fill="none">
    <path d="M14.6666 4.33333H10.6666M3.99998 4.33333H1.33331M14.6666 11.6667H12M5.33331 11.6667H1.33331M8.99998 4.33333C8.99998 5.622 7.95531 6.66667 6.66665 6.66667C5.37798 6.66667 4.33331 5.622 4.33331 4.33333C4.33331 3.04467 5.37798 2 6.66665 2C7.95531 2 8.99998 3.04467 8.99998 4.33333ZM11.6666 11.6667C11.6666 12.9553 10.622 14 9.33331 14C8.04465 14 6.99998 12.9553 6.99998 11.6667C6.99998 10.378 8.04465 9.33333 9.33331 9.33333C10.622 9.33333 11.6666 10.378 11.6666 11.6667Z"
          stroke="currentcolor" stroke-width="1.5" stroke-miterlimit="10" stroke-linecap="round"
          stroke-linejoin="round"/>
</svg>
