<svg width="16" height="17" viewBox="0 0 16 17" fill="none" xmlns="http://www.w3.org/2000/svg">
<path d="M11.7333 0.5C11.4503 0.500003 11.1789 0.612353 10.9788 0.812333C10.7788 1.01231 10.6663 1.28354 10.6663 1.56635V2.10005H1.06696C0.78399 2.10005 0.512606 2.2124 0.31251 2.41237C0.112414 2.61233 -4.02495e-06 2.88355 -1.52587e-05 3.16635C-1.65386e-05 3.30639 0.0275807 3.44505 0.0812007 3.57443C0.134821 3.7038 0.213414 3.82136 0.312492 3.92038C0.41157 4.0194 0.529193 4.09794 0.658646 4.15153C0.788098 4.20512 0.926845 4.23271 1.06696 4.23271H10.6663V4.76703C10.6663 5.04984 10.7788 5.32107 10.9788 5.52105C11.1789 5.72103 11.4503 5.83338 11.7333 5.83339C12.0163 5.83338 12.2877 5.72103 12.4878 5.52105C12.6879 5.32107 12.8003 5.04984 12.8003 4.76703V4.23271H14.933C15.0731 4.23271 15.2118 4.20514 15.3413 4.15155C15.4707 4.09796 15.5884 4.01942 15.6875 3.9204C15.7865 3.82137 15.8651 3.70382 15.9188 3.57444C15.9724 3.44506 16 3.30639 16 3.16635C16 3.02632 15.9724 2.88766 15.9188 2.75828C15.8651 2.62891 15.7865 2.51136 15.6874 2.41235C15.5884 2.31333 15.4707 2.23479 15.3413 2.18121C15.2118 2.12762 15.0731 2.10005 14.933 2.10005H12.8003V1.56635C12.8003 1.28354 12.6879 1.01231 12.4878 0.812333C12.2877 0.612353 12.0163 0.500003 11.7333 0.5ZM3.99999 5.83333C3.85986 5.83333 3.72111 5.86091 3.59165 5.91449C3.46219 5.96808 3.34456 6.04663 3.24548 6.14565C3.1464 6.24467 3.0678 6.36222 3.01418 6.4916C2.96055 6.62098 2.93295 6.75965 2.93295 6.89969V7.43333H1.06728C0.927158 7.43333 0.788411 7.46092 0.658958 7.51451C0.529506 7.5681 0.411882 7.64664 0.312804 7.74566C0.213726 7.84468 0.135133 7.96224 0.0815132 8.09161C0.0278932 8.22099 0.000295943 8.35965 0.000297237 8.49969C0.000295943 8.63972 0.0278932 8.77839 0.0815132 8.90776C0.135133 9.03714 0.213726 9.15469 0.312804 9.25371C0.411882 9.35273 0.529506 9.43128 0.658958 9.48487C0.788411 9.53846 0.927158 9.56604 1.06728 9.56604H2.93295V10.1004C2.93295 10.2404 2.96055 10.3791 3.01418 10.5084C3.0678 10.6378 3.1464 10.7554 3.24548 10.8544C3.34456 10.9534 3.46219 11.032 3.59165 11.0856C3.72111 11.1391 3.85986 11.1667 3.99999 11.1667C4.28297 11.1667 4.55436 11.0544 4.75446 10.8544C4.95455 10.6544 5.06697 10.3832 5.06696 10.1004V9.56604H14.9333C15.0734 9.56604 15.2122 9.53846 15.3416 9.48487C15.4711 9.43128 15.5887 9.35273 15.6878 9.25371C15.7869 9.15469 15.8655 9.03714 15.9191 8.90776C15.9727 8.77839 16.0003 8.63972 16.0003 8.49969C16.0003 8.35965 15.9727 8.22099 15.9191 8.09161C15.8655 7.96224 15.7869 7.84468 15.6878 7.74566C15.5887 7.64664 15.4711 7.5681 15.3416 7.51451C15.2122 7.46092 15.0734 7.43333 14.9333 7.43333H5.06696V6.89969C5.06697 6.61688 4.95455 6.34565 4.75446 6.14567C4.55436 5.94569 4.28297 5.83334 3.99999 5.83333ZM7.46665 11.1667C7.18368 11.1667 6.91229 11.2791 6.7122 11.479C6.5121 11.679 6.39968 11.9502 6.39967 12.233V12.7667H1.06728C0.927158 12.7667 0.788411 12.7943 0.658958 12.8478C0.529506 12.9014 0.411882 12.98 0.312804 13.079C0.213726 13.178 0.135133 13.2956 0.0815132 13.4249C0.0278932 13.5543 0.000295943 13.693 0.000297237 13.833C0.000308491 14.1158 0.112727 14.387 0.312823 14.587C0.512919 14.787 0.784303 14.8993 1.06728 14.8993H6.39967V15.4337C6.39968 15.7165 6.5121 15.9877 6.7122 16.1877C6.91229 16.3877 7.18368 16.5 7.46665 16.5C7.74963 16.5 8.02101 16.3877 8.2211 16.1877C8.4212 15.9877 8.53362 15.7165 8.53363 15.4337V14.8993H14.9333C15.2163 14.8993 15.4877 14.787 15.6878 14.587C15.8879 14.387 16.0003 14.1158 16.0003 13.833C16.0003 13.693 15.9727 13.5543 15.9191 13.4249C15.8655 13.2956 15.7869 13.178 15.6878 13.079C15.5887 12.98 15.4711 12.9014 15.3416 12.8478C15.2122 12.7943 15.0734 12.7667 14.9333 12.7667H8.53363V12.233C8.53362 11.9502 8.4212 11.679 8.2211 11.479C8.02101 11.2791 7.74963 11.1667 7.46665 11.1667Z" fill="currentcolor"/>
</svg>
