<svg width="18" height="19" viewBox="0 0 18 19" fill="none" xmlns="http://www.w3.org/2000/svg">
<g clip-path="url(#clip0_9_2627)">
<path fill-rule="evenodd" clip-rule="evenodd" d="M14.625 5H3.375C3.0645 5 2.8125 4.74856 2.8125 4.4375C2.8125 4.127 3.0645 3.875 3.375 3.875H14.625C14.9355 3.875 15.1875 4.127 15.1875 4.4375C15.1875 4.74856 14.9355 5 14.625 5ZM14.0625 16.25C14.0625 16.871 13.5585 17.375 12.9375 17.375H5.0625C4.4415 17.375 3.9375 16.871 3.9375 16.25V6.125H14.0625V16.25ZM7.3125 2.1875C7.3125 1.87644 7.5645 1.625 7.875 1.625H10.125C10.4355 1.625 10.6875 1.87644 10.6875 2.1875V2.75H7.3125V2.1875ZM15.1875 2.75H11.8125V1.625C11.8125 1.004 11.3085 0.5 10.6875 0.5H7.3125C6.6915 0.5 6.1875 1.004 6.1875 1.625V2.75H2.8125C2.1915 2.75 1.6875 3.254 1.6875 3.875V5C1.6875 5.621 2.1915 6.125 2.8125 6.125V16.25C2.8125 17.4926 3.81994 18.5 5.0625 18.5H12.9375C14.1801 18.5 15.1875 17.4926 15.1875 16.25V6.125C15.8085 6.125 16.3125 5.621 16.3125 5V3.875C16.3125 3.254 15.8085 2.75 15.1875 2.75ZM9 16.25C9.3105 16.25 9.5625 15.9986 9.5625 15.6875V8.9375C9.5625 8.627 9.3105 8.375 9 8.375C8.6895 8.375 8.4375 8.627 8.4375 8.9375V15.6875C8.4375 15.9986 8.6895 16.25 9 16.25ZM6.1875 16.25C6.498 16.25 6.75 15.9986 6.75 15.6875V8.9375C6.75 8.627 6.498 8.375 6.1875 8.375C5.877 8.375 5.625 8.627 5.625 8.9375V15.6875C5.625 15.9986 5.877 16.25 6.1875 16.25ZM11.8125 16.25C12.123 16.25 12.375 15.9986 12.375 15.6875V8.9375C12.375 8.627 12.123 8.375 11.8125 8.375C11.502 8.375 11.25 8.627 11.25 8.9375V15.6875C11.25 15.9986 11.502 16.25 11.8125 16.25Z" fill="currentcolor"/>
</g>
<defs>
<clipPath id="clip0_9_2627">
<rect width="18" height="18" fill="white" transform="translate(0 0.5)"/>
</clipPath>
</defs>
</svg>
